<svg width="40" height="39" viewBox="0 0 40 39" fill="none" xmlns="http://www.w3.org/2000/svg">
<path d="M16.6667 9.99988L16.6665 8.58391C16.6661 6.74269 18.1586 5.24988 19.9998 5.24988V5.24988C21.8405 5.24988 23.3327 6.74184 23.3331 8.58251L23.3334 9.99988M23.3324 29.7915H29.2697C31.7904 29.7915 33.1136 26.8001 31.418 24.935L30.2254 23.6233C28.7562 22.0074 28.0469 19.8411 28.2756 17.6691V17.6691C28.7519 13.147 25.2062 9.20821 20.6591 9.20821H19.3414C14.7939 9.20821 11.2478 13.147 11.7236 17.6695V17.6695C11.952 19.8413 11.2427 22.0073 9.77381 23.6232L8.58167 24.9347C6.8861 26.8 8.20957 29.7915 10.7303 29.7915H16.6658M23.3324 29.7915V30.4165C23.3324 32.2575 21.84 33.7499 19.9991 33.7499V33.7499C18.1581 33.7499 16.6658 32.2575 16.6658 30.4165V29.7915M23.3324 29.7915H16.6658" stroke="#1E293B" stroke-width="1.5" stroke-linejoin="round"/>
</svg>
