<svg width="1000" height="550" viewBox="0 0 1000 550" fill="none" xmlns="http://www.w3.org/2000/svg">
<rect width="1000" height="550" fill="white"/>
<rect x="221.027" y="115.854" width="560.335" height="48.7805" rx="24.3902" fill="#336699"/>
<path d="M258.491 43.5788L258.099 46.3228H250.959V51.7268H257.175V54.4708H250.959V60.1548H258.603V62.9268H247.263V43.5788H258.491ZM269.621 47.6948C270.946 47.6948 271.973 48.0962 272.701 48.8988C273.448 49.6828 273.821 50.7842 273.821 52.2028V62.9268H270.237V52.7628C270.237 51.8855 270.078 51.2695 269.761 50.9148C269.462 50.5602 269.014 50.3828 268.417 50.3828C267.801 50.3828 267.241 50.5788 266.737 50.9708C266.252 51.3442 265.776 51.8948 265.309 52.6228V62.9268H261.725V48.1148H264.833L265.113 50.0468C266.326 48.4788 267.829 47.6948 269.621 47.6948ZM290.147 55.1708C290.147 55.3575 290.119 55.8428 290.063 56.6268H280.767C280.879 58.0642 281.252 59.0908 281.887 59.7068C282.521 60.3228 283.361 60.6308 284.407 60.6308C285.06 60.6308 285.676 60.5282 286.255 60.3228C286.833 60.0988 287.449 59.7628 288.103 59.3148L289.587 61.3588C287.944 62.6842 286.115 63.3468 284.099 63.3468C281.84 63.3468 280.095 62.6562 278.863 61.2748C277.649 59.8935 277.043 58.0082 277.043 55.6188C277.043 54.1068 277.304 52.7535 277.827 51.5588C278.349 50.3455 279.105 49.4028 280.095 48.7308C281.084 48.0402 282.26 47.6948 283.623 47.6948C285.695 47.6948 287.3 48.3575 288.439 49.6828C289.577 50.9895 290.147 52.8188 290.147 55.1708ZM286.591 54.1348C286.591 51.5402 285.629 50.2428 283.707 50.2428C282.829 50.2428 282.139 50.5695 281.635 51.2228C281.149 51.8575 280.86 52.8842 280.767 54.3028H286.591V54.1348ZM300.67 47.7228C301.211 47.7228 301.706 47.7882 302.154 47.9188L301.538 51.3908C301.09 51.2788 300.651 51.2228 300.222 51.2228C299.344 51.2228 298.654 51.5402 298.15 52.1748C297.646 52.7908 297.244 53.7428 296.946 55.0308V62.9268H293.362V48.1148H296.47L296.806 51.0268C297.16 49.9628 297.674 49.1508 298.346 48.5908C299.018 48.0122 299.792 47.7228 300.67 47.7228ZM309.582 47.6948C311.766 47.6948 313.464 48.3948 314.678 49.7948C315.91 51.1762 316.526 53.0802 316.526 55.5068C316.526 57.0562 316.246 58.4282 315.686 59.6228C315.126 60.7988 314.323 61.7135 313.278 62.3668C312.232 63.0202 310.991 63.3468 309.554 63.3468C307.37 63.3468 305.662 62.6562 304.43 61.2748C303.198 59.8748 302.582 57.9522 302.582 55.5068C302.582 53.9575 302.862 52.5948 303.422 51.4188C303.982 50.2428 304.784 49.3282 305.83 48.6748C306.894 48.0215 308.144 47.6948 309.582 47.6948ZM309.582 50.4108C307.435 50.4108 306.362 52.1095 306.362 55.5068C306.362 57.2615 306.623 58.5588 307.146 59.3988C307.687 60.2202 308.49 60.6308 309.554 60.6308C310.618 60.6308 311.411 60.2108 311.934 59.3708C312.475 58.5308 312.746 57.2428 312.746 55.5068C312.746 53.7708 312.475 52.4922 311.934 51.6708C311.411 50.8308 310.627 50.4108 309.582 50.4108Z" fill="black"/>
<path d="M378.587 62.9268V43.5788H389.535L389.143 46.3228H382.283V52.1188H388.247V54.8628H382.283V62.9268H378.587ZM403.342 55.1708C403.342 55.3575 403.314 55.8428 403.258 56.6268H393.962C394.074 58.0642 394.447 59.0908 395.082 59.7068C395.717 60.3228 396.557 60.6308 397.602 60.6308C398.255 60.6308 398.871 60.5282 399.45 60.3228C400.029 60.0988 400.645 59.7628 401.298 59.3148L402.782 61.3588C401.139 62.6842 399.31 63.3468 397.294 63.3468C395.035 63.3468 393.29 62.6562 392.058 61.2748C390.845 59.8935 390.238 58.0082 390.238 55.6188C390.238 54.1068 390.499 52.7535 391.022 51.5588C391.545 50.3455 392.301 49.4028 393.29 48.7308C394.279 48.0402 395.455 47.6948 396.818 47.6948C398.89 47.6948 400.495 48.3575 401.634 49.6828C402.773 50.9895 403.342 52.8188 403.342 55.1708ZM399.786 54.1348C399.786 51.5402 398.825 50.2428 396.902 50.2428C396.025 50.2428 395.334 50.5695 394.83 51.2228C394.345 51.8575 394.055 52.8842 393.962 54.3028H399.786V54.1348ZM414.229 47.6948C415.946 47.6948 417.29 48.3855 418.261 49.7668C419.232 51.1295 419.717 53.0428 419.717 55.5068C419.717 57.0375 419.474 58.4002 418.989 59.5948C418.522 60.7708 417.85 61.6948 416.973 62.3668C416.096 63.0202 415.06 63.3468 413.865 63.3468C413.062 63.3468 412.325 63.1788 411.653 62.8428C411 62.5068 410.43 62.0308 409.945 61.4148L409.721 62.9268H406.557V42.1788L410.141 41.7868V49.7948C410.626 49.1228 411.214 48.6095 411.905 48.2548C412.614 47.8815 413.389 47.6948 414.229 47.6948ZM412.885 60.6588C413.856 60.6588 414.612 60.2482 415.153 59.4268C415.694 58.5868 415.965 57.2802 415.965 55.5068C415.965 53.6402 415.713 52.3242 415.209 51.5588C414.705 50.7748 413.996 50.3828 413.081 50.3828C411.942 50.3828 410.962 51.0548 410.141 52.3988V58.9508C410.458 59.4922 410.85 59.9122 411.317 60.2108C411.802 60.5095 412.325 60.6588 412.885 60.6588ZM430.545 47.7228C431.086 47.7228 431.581 47.7882 432.029 47.9188L431.413 51.3908C430.965 51.2788 430.526 51.2228 430.097 51.2228C429.219 51.2228 428.529 51.5402 428.025 52.1748C427.521 52.7908 427.119 53.7428 426.821 55.0308V62.9268H423.237V48.1148H426.345L426.681 51.0268C427.035 49.9628 427.549 49.1508 428.221 48.5908C428.893 48.0122 429.667 47.7228 430.545 47.7228ZM445.561 55.1708C445.561 55.3575 445.533 55.8428 445.477 56.6268H436.181C436.293 58.0642 436.666 59.0908 437.301 59.7068C437.935 60.3228 438.775 60.6308 439.821 60.6308C440.474 60.6308 441.09 60.5282 441.669 60.3228C442.247 60.0988 442.863 59.7628 443.517 59.3148L445.001 61.3588C443.358 62.6842 441.529 63.3468 439.513 63.3468C437.254 63.3468 435.509 62.6562 434.277 61.2748C433.063 59.8935 432.457 58.0082 432.457 55.6188C432.457 54.1068 432.718 52.7535 433.241 51.5588C433.763 50.3455 434.519 49.4028 435.509 48.7308C436.498 48.0402 437.674 47.6948 439.037 47.6948C441.109 47.6948 442.714 48.3575 443.853 49.6828C444.991 50.9895 445.561 52.8188 445.561 55.1708ZM442.005 54.1348C442.005 51.5402 441.043 50.2428 439.121 50.2428C438.243 50.2428 437.553 50.5695 437.049 51.2228C436.563 51.8575 436.274 52.8842 436.181 54.3028H442.005V54.1348ZM456.084 47.7228C456.625 47.7228 457.12 47.7882 457.568 47.9188L456.952 51.3908C456.504 51.2788 456.065 51.2228 455.636 51.2228C454.759 51.2228 454.068 51.5402 453.564 52.1748C453.06 52.7908 452.659 53.7428 452.36 55.0308V62.9268H448.776V48.1148H451.884L452.22 51.0268C452.575 49.9628 453.088 49.1508 453.76 48.5908C454.432 48.0122 455.207 47.7228 456.084 47.7228ZM464.996 47.6948C467.18 47.6948 468.878 48.3948 470.092 49.7948C471.324 51.1762 471.94 53.0802 471.94 55.5068C471.94 57.0562 471.66 58.4282 471.1 59.6228C470.54 60.7988 469.737 61.7135 468.692 62.3668C467.646 63.0202 466.405 63.3468 464.968 63.3468C462.784 63.3468 461.076 62.6562 459.844 61.2748C458.612 59.8748 457.996 57.9522 457.996 55.5068C457.996 53.9575 458.276 52.5948 458.836 51.4188C459.396 50.2428 460.198 49.3282 461.244 48.6748C462.308 48.0215 463.558 47.6948 464.996 47.6948ZM464.996 50.4108C462.849 50.4108 461.776 52.1095 461.776 55.5068C461.776 57.2615 462.037 58.5588 462.56 59.3988C463.101 60.2202 463.904 60.6308 464.968 60.6308C466.032 60.6308 466.825 60.2108 467.348 59.3708C467.889 58.5308 468.16 57.2428 468.16 55.5068C468.16 53.7708 467.889 52.4922 467.348 51.6708C466.825 50.8308 466.041 50.4108 464.996 50.4108Z" fill="black"/>
<path d="M552.776 62.9268H549.164L548.66 54.8348C548.492 51.9415 548.408 49.6455 548.408 47.9468V46.9388L544.88 60.8268H541.38L537.628 46.9108C537.665 48.1428 537.684 49.0762 537.684 49.7108C537.684 51.4095 537.628 53.1548 537.516 54.9468L537.04 62.9268H533.456L534.996 43.5788H539.756L543.2 57.1308L546.448 43.5788H551.264L552.776 62.9268ZM567.174 59.0068C567.174 59.5855 567.258 60.0148 567.426 60.2948C567.613 60.5562 567.902 60.7615 568.294 60.9108L567.538 63.2908C566.698 63.2162 566.007 63.0108 565.466 62.6748C564.943 62.3388 564.542 61.8255 564.262 61.1348C563.758 61.8815 563.123 62.4415 562.358 62.8148C561.611 63.1695 560.771 63.3468 559.838 63.3468C558.363 63.3468 557.197 62.9268 556.338 62.0868C555.479 61.2468 555.05 60.1455 555.05 58.7828C555.05 57.1775 555.629 55.9548 556.786 55.1148C557.962 54.2562 559.633 53.8268 561.798 53.8268H563.646V52.9868C563.646 52.0348 563.422 51.3722 562.974 50.9988C562.545 50.6068 561.845 50.4108 560.874 50.4108C559.791 50.4108 558.485 50.6722 556.954 51.1948L556.114 48.7588C557.962 48.0495 559.754 47.6948 561.49 47.6948C565.279 47.6948 567.174 49.3935 567.174 52.7908V59.0068ZM560.79 60.7428C562.003 60.7428 562.955 60.1362 563.646 58.9228V55.9268H562.162C559.847 55.9268 558.69 56.7855 558.69 58.5028C558.69 59.2122 558.867 59.7628 559.222 60.1548C559.577 60.5468 560.099 60.7428 560.79 60.7428ZM578.819 47.7228C579.36 47.7228 579.855 47.7882 580.303 47.9188L579.687 51.3908C579.239 51.2788 578.8 51.2228 578.371 51.2228C577.494 51.2228 576.803 51.5402 576.299 52.1748C575.795 52.7908 575.394 53.7428 575.095 55.0308V62.9268H571.511V48.1148H574.619L574.955 51.0268C575.31 49.9628 575.823 49.1508 576.495 48.5908C577.167 48.0122 577.942 47.7228 578.819 47.7228ZM591.889 48.1148V50.6908L584.721 60.1268H592.029L591.665 62.9268H580.605V60.3508L587.801 50.9148H581.221V48.1148H591.889ZM600.665 47.6948C602.849 47.6948 604.547 48.3948 605.761 49.7948C606.993 51.1762 607.609 53.0802 607.609 55.5068C607.609 57.0562 607.329 58.4282 606.769 59.6228C606.209 60.7988 605.406 61.7135 604.361 62.3668C603.315 63.0202 602.074 63.3468 600.637 63.3468C598.453 63.3468 596.745 62.6562 595.513 61.2748C594.281 59.8748 593.665 57.9522 593.665 55.5068C593.665 53.9575 593.945 52.5948 594.505 51.4188C595.065 50.2428 595.867 49.3282 596.913 48.6748C597.977 48.0215 599.227 47.6948 600.665 47.6948ZM600.665 50.4108C598.518 50.4108 597.445 52.1095 597.445 55.5068C597.445 57.2615 597.706 58.5588 598.229 59.3988C598.77 60.2202 599.573 60.6308 600.637 60.6308C601.701 60.6308 602.494 60.2108 603.017 59.3708C603.558 58.5308 603.829 57.2428 603.829 55.5068C603.829 53.7708 603.558 52.4922 603.017 51.6708C602.494 50.8308 601.71 50.4108 600.665 50.4108Z" fill="black"/>
<path d="M673.583 62.9268L672.379 58.4468H665.967L664.763 62.9268H660.927L666.947 43.5788H671.511L677.503 62.9268H673.583ZM666.695 55.6468H671.623L669.159 46.4068L666.695 55.6468ZM687.219 47.6948C688.937 47.6948 690.281 48.3855 691.251 49.7668C692.222 51.1295 692.707 53.0428 692.707 55.5068C692.707 57.0375 692.465 58.4002 691.979 59.5948C691.513 60.7708 690.841 61.6948 689.963 62.3668C689.086 63.0202 688.05 63.3468 686.855 63.3468C686.053 63.3468 685.315 63.1788 684.643 62.8428C683.99 62.5068 683.421 62.0308 682.935 61.4148L682.711 62.9268H679.547V42.1788L683.131 41.7868V49.7948C683.617 49.1228 684.205 48.6095 684.895 48.2548C685.605 47.8815 686.379 47.6948 687.219 47.6948ZM685.875 60.6588C686.846 60.6588 687.602 60.2482 688.143 59.4268C688.685 58.5868 688.955 57.2802 688.955 55.5068C688.955 53.6402 688.703 52.3242 688.199 51.5588C687.695 50.7748 686.986 50.3828 686.071 50.3828C684.933 50.3828 683.953 51.0548 683.131 52.3988V58.9508C683.449 59.4922 683.841 59.9122 684.307 60.2108C684.793 60.5095 685.315 60.6588 685.875 60.6588ZM703.535 47.7228C704.076 47.7228 704.571 47.7882 705.019 47.9188L704.403 51.3908C703.955 51.2788 703.516 51.2228 703.087 51.2228C702.21 51.2228 701.519 51.5402 701.015 52.1748C700.511 52.7908 700.11 53.7428 699.811 55.0308V62.9268H696.227V48.1148H699.335L699.671 51.0268C700.026 49.9628 700.539 49.1508 701.211 48.5908C701.883 48.0122 702.658 47.7228 703.535 47.7228ZM710.831 48.1148V62.9268H707.247V48.1148H710.831ZM709.011 40.6108C709.683 40.6108 710.224 40.8255 710.635 41.2548C711.064 41.6655 711.279 42.1788 711.279 42.7948C711.279 43.4108 711.064 43.9242 710.635 44.3348C710.224 44.7455 709.683 44.9508 709.011 44.9508C708.357 44.9508 707.816 44.7455 707.387 44.3348C706.976 43.9242 706.771 43.4108 706.771 42.7948C706.771 42.1788 706.976 41.6655 707.387 41.2548C707.816 40.8255 708.357 40.6108 709.011 40.6108ZM718.649 63.3468C717.51 63.3468 716.614 63.0202 715.961 62.3668C715.326 61.6948 715.009 60.7522 715.009 59.5388V42.1788L718.593 41.7868V59.4268C718.593 60.1175 718.873 60.4628 719.433 60.4628C719.713 60.4628 719.993 60.4162 720.273 60.3228L721.029 62.8428C720.282 63.1788 719.489 63.3468 718.649 63.3468Z" fill="black"/>
<path d="M793.495 62.9268H789.883L789.379 54.8348C789.211 51.9415 789.127 49.6455 789.127 47.9468V46.9388L785.599 60.8268H782.099L778.347 46.9108C778.384 48.1428 778.403 49.0762 778.403 49.7108C778.403 51.4095 778.347 53.1548 778.235 54.9468L777.759 62.9268H774.175L775.715 43.5788H780.475L783.919 57.1308L787.167 43.5788H791.983L793.495 62.9268ZM807.893 59.0068C807.893 59.5855 807.977 60.0148 808.145 60.2948C808.332 60.5562 808.621 60.7615 809.013 60.9108L808.257 63.2908C807.417 63.2162 806.727 63.0108 806.185 62.6748C805.663 62.3388 805.261 61.8255 804.981 61.1348C804.477 61.8815 803.843 62.4415 803.077 62.8148C802.331 63.1695 801.491 63.3468 800.557 63.3468C799.083 63.3468 797.916 62.9268 797.057 62.0868C796.199 61.2468 795.769 60.1455 795.769 58.7828C795.769 57.1775 796.348 55.9548 797.505 55.1148C798.681 54.2562 800.352 53.8268 802.517 53.8268H804.365V52.9868C804.365 52.0348 804.141 51.3722 803.693 50.9988C803.264 50.6068 802.564 50.4108 801.593 50.4108C800.511 50.4108 799.204 50.6722 797.673 51.1948L796.833 48.7588C798.681 48.0495 800.473 47.6948 802.209 47.6948C805.999 47.6948 807.893 49.3935 807.893 52.7908V59.0068ZM801.509 60.7428C802.723 60.7428 803.675 60.1362 804.365 58.9228V55.9268H802.881C800.567 55.9268 799.409 56.7855 799.409 58.5028C799.409 59.2122 799.587 59.7628 799.941 60.1548C800.296 60.5468 800.819 60.7428 801.509 60.7428ZM818.988 62.9828C818.391 64.8122 817.486 66.2308 816.272 67.2388C815.059 68.2655 813.398 68.8628 811.288 69.0308L810.924 66.4268C811.895 66.2775 812.67 66.0628 813.248 65.7828C813.846 65.5215 814.322 65.1668 814.676 64.7188C815.031 64.2708 815.358 63.6735 815.656 62.9268H814.424L809.72 48.1148H813.528L816.748 60.5468L820.108 48.1148H823.804L818.988 62.9828ZM831.868 47.6948C834.052 47.6948 835.751 48.3948 836.964 49.7948C838.196 51.1762 838.812 53.0802 838.812 55.5068C838.812 57.0562 838.532 58.4282 837.972 59.6228C837.412 60.7988 836.61 61.7135 835.564 62.3668C834.519 63.0202 833.278 63.3468 831.84 63.3468C829.656 63.3468 827.948 62.6562 826.716 61.2748C825.484 59.8748 824.868 57.9522 824.868 55.5068C824.868 53.9575 825.148 52.5948 825.708 51.4188C826.268 50.2428 827.071 49.3282 828.116 48.6748C829.18 48.0215 830.431 47.6948 831.868 47.6948ZM831.868 50.4108C829.722 50.4108 828.648 52.1095 828.648 55.5068C828.648 57.2615 828.91 58.5588 829.432 59.3988C829.974 60.2202 830.776 60.6308 831.84 60.6308C832.904 60.6308 833.698 60.2108 834.22 59.3708C834.762 58.5308 835.032 57.2428 835.032 55.5068C835.032 53.7708 834.762 52.4922 834.22 51.6708C833.698 50.8308 832.914 50.4108 831.868 50.4108Z" fill="black"/>
<path d="M902.192 60.0988C902.192 62.1708 901.698 63.7295 900.708 64.7748C899.738 65.8388 898.338 66.6695 896.508 67.2668L895.528 64.6068C896.35 64.2895 896.966 63.9255 897.376 63.5148C897.806 63.1228 898.095 62.6562 898.244 62.1148C898.394 61.5548 898.468 60.8362 898.468 59.9588V43.5788H902.192V60.0988ZM918.335 62.9268H915.227L915.031 60.8548C914.49 61.6948 913.846 62.3202 913.099 62.7308C912.371 63.1415 911.503 63.3468 910.495 63.3468C909.17 63.3468 908.143 62.9455 907.415 62.1428C906.706 61.3215 906.351 60.1922 906.351 58.7548V48.1148H909.935V58.3068C909.935 59.1468 910.075 59.7442 910.355 60.0988C910.654 60.4535 911.12 60.6308 911.755 60.6308C912.894 60.6308 913.892 59.9308 914.751 58.5308V48.1148H918.335V62.9268ZM930.547 47.6948C931.872 47.6948 932.899 48.0962 933.627 48.8988C934.374 49.6828 934.747 50.7842 934.747 52.2028V62.9268H931.163V52.7628C931.163 51.8855 931.004 51.2695 930.687 50.9148C930.388 50.5602 929.94 50.3828 929.343 50.3828C928.727 50.3828 928.167 50.5788 927.663 50.9708C927.178 51.3442 926.702 51.8948 926.235 52.6228V62.9268H922.651V48.1148H925.759L926.039 50.0468C927.252 48.4788 928.755 47.6948 930.547 47.6948ZM942.505 48.1148V62.9268H938.921V48.1148H942.505ZM940.685 40.6108C941.357 40.6108 941.898 40.8255 942.309 41.2548C942.738 41.6655 942.953 42.1788 942.953 42.7948C942.953 43.4108 942.738 43.9242 942.309 44.3348C941.898 44.7455 941.357 44.9508 940.685 44.9508C940.031 44.9508 939.49 44.7455 939.061 44.3348C938.65 43.9242 938.445 43.4108 938.445 42.7948C938.445 42.1788 938.65 41.6655 939.061 41.2548C939.49 40.8255 940.031 40.6108 940.685 40.6108ZM952.871 47.6948C955.055 47.6948 956.754 48.3948 957.967 49.7948C959.199 51.1762 959.815 53.0802 959.815 55.5068C959.815 57.0562 959.535 58.4282 958.975 59.6228C958.415 60.7988 957.612 61.7135 956.567 62.3668C955.522 63.0202 954.28 63.3468 952.843 63.3468C950.659 63.3468 948.951 62.6562 947.719 61.2748C946.487 59.8748 945.871 57.9522 945.871 55.5068C945.871 53.9575 946.151 52.5948 946.711 51.4188C947.271 50.2428 948.074 49.3282 949.119 48.6748C950.183 48.0215 951.434 47.6948 952.871 47.6948ZM952.871 50.4108C950.724 50.4108 949.651 52.1095 949.651 55.5068C949.651 57.2615 949.912 58.5588 950.435 59.3988C950.976 60.2202 951.779 60.6308 952.843 60.6308C953.907 60.6308 954.7 60.2108 955.223 59.3708C955.764 58.5308 956.035 57.2428 956.035 55.5068C956.035 53.7708 955.764 52.4922 955.223 51.6708C954.7 50.8308 953.916 50.4108 952.871 50.4108Z" fill="black"/>
<rect x="221.027" y="226.829" width="192.354" height="48.7805" rx="24.3902" fill="#E09F7D"/>
<rect x="221.027" y="339.024" width="727.599" height="48.7805" rx="24.3902" fill="#22C55E"/>
<rect x="221.027" y="458.536" width="350.06" height="48.7805" rx="24.3902" fill="#2F4858"/>
<path d="M115.414 127.725L115.022 130.665H109.982V147.073H106.258V130.665H101.05V127.725H115.414ZM127.271 143.153C127.271 143.732 127.355 144.161 127.523 144.441C127.71 144.703 127.999 144.908 128.391 145.057L127.635 147.437C126.795 147.363 126.105 147.157 125.563 146.821C125.041 146.485 124.639 145.972 124.359 145.281C123.855 146.028 123.221 146.588 122.455 146.961C121.709 147.316 120.869 147.493 119.935 147.493C118.461 147.493 117.294 147.073 116.435 146.233C115.577 145.393 115.147 144.292 115.147 142.929C115.147 141.324 115.726 140.101 116.883 139.261C118.059 138.403 119.73 137.973 121.895 137.973H123.743V137.133C123.743 136.181 123.519 135.519 123.071 135.145C122.642 134.753 121.942 134.557 120.971 134.557C119.889 134.557 118.582 134.819 117.051 135.341L116.211 132.905C118.059 132.196 119.851 131.841 121.587 131.841C125.377 131.841 127.271 133.54 127.271 136.937V143.153ZM120.887 144.889C122.101 144.889 123.053 144.283 123.743 143.069V140.073H122.259C119.945 140.073 118.787 140.932 118.787 142.649C118.787 143.359 118.965 143.909 119.319 144.301C119.674 144.693 120.197 144.889 120.887 144.889ZM138.916 131.869C139.458 131.869 139.952 131.935 140.4 132.065L139.784 135.537C139.336 135.425 138.898 135.369 138.468 135.369C137.591 135.369 136.9 135.687 136.396 136.321C135.892 136.937 135.491 137.889 135.192 139.177V147.073H131.608V132.261H134.716L135.052 135.173C135.407 134.109 135.92 133.297 136.592 132.737C137.264 132.159 138.039 131.869 138.916 131.869ZM153.932 139.317C153.932 139.504 153.904 139.989 153.848 140.773H144.552C144.664 142.211 145.038 143.237 145.672 143.853C146.307 144.469 147.147 144.777 148.192 144.777C148.846 144.777 149.462 144.675 150.04 144.469C150.619 144.245 151.235 143.909 151.888 143.461L153.372 145.505C151.73 146.831 149.9 147.493 147.884 147.493C145.626 147.493 143.88 146.803 142.648 145.421C141.435 144.04 140.828 142.155 140.828 139.765C140.828 138.253 141.09 136.9 141.612 135.705C142.135 134.492 142.891 133.549 143.88 132.877C144.87 132.187 146.046 131.841 147.408 131.841C149.48 131.841 151.086 132.504 152.224 133.829C153.363 135.136 153.932 136.965 153.932 139.317ZM150.376 138.281C150.376 135.687 149.415 134.389 147.492 134.389C146.615 134.389 145.924 134.716 145.42 135.369C144.935 136.004 144.646 137.031 144.552 138.449H150.376V138.281ZM167.822 143.153C167.822 143.732 167.906 144.161 168.074 144.441C168.261 144.703 168.55 144.908 168.942 145.057L168.186 147.437C167.346 147.363 166.655 147.157 166.114 146.821C165.591 146.485 165.19 145.972 164.91 145.281C164.406 146.028 163.771 146.588 163.006 146.961C162.259 147.316 161.419 147.493 160.486 147.493C159.011 147.493 157.845 147.073 156.986 146.233C156.127 145.393 155.698 144.292 155.698 142.929C155.698 141.324 156.277 140.101 157.434 139.261C158.61 138.403 160.281 137.973 162.446 137.973H164.294V137.133C164.294 136.181 164.07 135.519 163.622 135.145C163.193 134.753 162.493 134.557 161.522 134.557C160.439 134.557 159.133 134.819 157.602 135.341L156.762 132.905C158.61 132.196 160.402 131.841 162.138 131.841C165.927 131.841 167.822 133.54 167.822 136.937V143.153ZM161.438 144.889C162.651 144.889 163.603 144.283 164.294 143.069V140.073H162.81C160.495 140.073 159.338 140.932 159.338 142.649C159.338 143.359 159.515 143.909 159.87 144.301C160.225 144.693 160.747 144.889 161.438 144.889ZM186.943 128.229V147.073H183.415V131.841L179.215 134.389L177.647 131.981L183.779 128.229H186.943Z" fill="black"/>
<ellipse cx="44.2055" cy="134.146" rx="23.8949" ry="24.3902" fill="#336699"/>
<ellipse cx="44.2055" cy="128.049" rx="11.9474" ry="12.1951" fill="black"/>
<path d="M61.5293 151.22C57.945 154.268 54.1066 158.537 44.209 158.537C34.0502 158.537 27.4791 151.829 26.8852 150.919C26.8852 142.837 34.3114 142.383 44.209 142.383C54.1066 142.383 61.5293 143.137 61.5293 151.22Z" fill="black"/>
<path d="M115.621 237.481L115.229 240.421H110.189V256.829H106.465V240.421H101.257V237.481H115.621ZM127.478 252.909C127.478 253.488 127.562 253.917 127.73 254.197C127.917 254.459 128.206 254.664 128.598 254.813L127.842 257.193C127.002 257.119 126.312 256.913 125.77 256.577C125.248 256.241 124.846 255.728 124.566 255.037C124.062 255.784 123.428 256.344 122.662 256.717C121.916 257.072 121.076 257.249 120.142 257.249C118.668 257.249 117.501 256.829 116.642 255.989C115.784 255.149 115.354 254.048 115.354 252.685C115.354 251.08 115.933 249.857 117.09 249.017C118.266 248.159 119.937 247.729 122.102 247.729H123.95V246.889C123.95 245.937 123.726 245.275 123.278 244.901C122.849 244.509 122.149 244.313 121.178 244.313C120.096 244.313 118.789 244.575 117.258 245.097L116.418 242.661C118.266 241.952 120.058 241.597 121.794 241.597C125.584 241.597 127.478 243.296 127.478 246.693V252.909ZM121.094 254.645C122.308 254.645 123.26 254.039 123.95 252.825V249.829H122.466C120.152 249.829 118.994 250.688 118.994 252.405C118.994 253.115 119.172 253.665 119.526 254.057C119.881 254.449 120.404 254.645 121.094 254.645ZM139.123 241.625C139.665 241.625 140.159 241.691 140.607 241.821L139.991 245.293C139.543 245.181 139.105 245.125 138.675 245.125C137.798 245.125 137.107 245.443 136.603 246.077C136.099 246.693 135.698 247.645 135.399 248.933V256.829H131.815V242.017H134.923L135.259 244.929C135.614 243.865 136.127 243.053 136.799 242.493C137.471 241.915 138.246 241.625 139.123 241.625ZM154.139 249.073C154.139 249.26 154.111 249.745 154.055 250.529H144.759C144.871 251.967 145.245 252.993 145.879 253.609C146.514 254.225 147.354 254.533 148.399 254.533C149.053 254.533 149.669 254.431 150.247 254.225C150.826 254.001 151.442 253.665 152.095 253.217L153.579 255.261C151.937 256.587 150.107 257.249 148.091 257.249C145.833 257.249 144.087 256.559 142.855 255.177C141.642 253.796 141.035 251.911 141.035 249.521C141.035 248.009 141.297 246.656 141.819 245.461C142.342 244.248 143.098 243.305 144.087 242.633C145.077 241.943 146.253 241.597 147.615 241.597C149.687 241.597 151.293 242.26 152.431 243.585C153.57 244.892 154.139 246.721 154.139 249.073ZM150.583 248.037C150.583 245.443 149.622 244.145 147.699 244.145C146.822 244.145 146.131 244.472 145.627 245.125C145.142 245.76 144.853 246.787 144.759 248.205H150.583V248.037ZM168.029 252.909C168.029 253.488 168.113 253.917 168.281 254.197C168.468 254.459 168.757 254.664 169.149 254.813L168.393 257.193C167.553 257.119 166.862 256.913 166.321 256.577C165.798 256.241 165.397 255.728 165.117 255.037C164.613 255.784 163.978 256.344 163.213 256.717C162.466 257.072 161.626 257.249 160.693 257.249C159.218 257.249 158.052 256.829 157.193 255.989C156.334 255.149 155.905 254.048 155.905 252.685C155.905 251.08 156.484 249.857 157.641 249.017C158.817 248.159 160.488 247.729 162.653 247.729H164.501V246.889C164.501 245.937 164.277 245.275 163.829 244.901C163.4 244.509 162.7 244.313 161.729 244.313C160.646 244.313 159.34 244.575 157.809 245.097L156.969 242.661C158.817 241.952 160.609 241.597 162.345 241.597C166.134 241.597 168.029 243.296 168.029 246.693V252.909ZM161.645 254.645C162.858 254.645 163.81 254.039 164.501 252.825V249.829H163.017C160.702 249.829 159.545 250.688 159.545 252.405C159.545 253.115 159.722 253.665 160.077 254.057C160.432 254.449 160.954 254.645 161.645 254.645ZM183.734 237.649C185.003 237.649 186.095 237.883 187.01 238.349C187.943 238.816 188.653 239.451 189.138 240.253C189.623 241.056 189.866 241.952 189.866 242.941C189.866 244.005 189.633 245.032 189.166 246.021C188.718 246.992 187.962 248.075 186.898 249.269C185.834 250.464 184.275 252.041 182.222 254.001H190.286L189.894 256.829H178.162V254.197C180.551 251.771 182.259 249.979 183.286 248.821C184.331 247.645 185.069 246.647 185.498 245.825C185.946 244.985 186.17 244.117 186.17 243.221C186.17 242.363 185.918 241.691 185.414 241.205C184.929 240.72 184.275 240.477 183.454 240.477C182.726 240.477 182.082 240.636 181.522 240.953C180.981 241.252 180.411 241.756 179.814 242.465L177.63 240.729C179.217 238.676 181.251 237.649 183.734 237.649Z" fill="black"/>
<ellipse cx="44.2055" cy="243.902" rx="23.8949" ry="24.3902" fill="#E09F7D"/>
<ellipse cx="44.2055" cy="237.805" rx="11.9474" ry="12.1951" fill="black"/>
<path d="M61.5293 260.976C57.945 264.024 54.1066 268.293 44.209 268.293C34.0502 268.293 27.4791 261.585 26.8852 260.675C26.8852 252.593 34.3114 252.139 44.209 252.139C54.1066 252.139 61.5293 252.893 61.5293 260.976Z" fill="black"/>
<path d="M114.58 356.993L114.188 359.933H109.148V376.341H105.424V359.933H100.216V356.993H114.58ZM126.437 372.421C126.437 373 126.521 373.429 126.689 373.709C126.876 373.971 127.165 374.176 127.557 374.325L126.801 376.705C125.961 376.631 125.271 376.425 124.729 376.089C124.207 375.753 123.805 375.24 123.525 374.549C123.021 375.296 122.387 375.856 121.621 376.229C120.875 376.584 120.035 376.761 119.101 376.761C117.627 376.761 116.46 376.341 115.601 375.501C114.743 374.661 114.313 373.56 114.313 372.197C114.313 370.592 114.892 369.369 116.049 368.529C117.225 367.671 118.896 367.241 121.061 367.241H122.909V366.401C122.909 365.449 122.685 364.787 122.237 364.413C121.808 364.021 121.108 363.825 120.137 363.825C119.055 363.825 117.748 364.087 116.217 364.609L115.377 362.173C117.225 361.464 119.017 361.109 120.753 361.109C124.543 361.109 126.437 362.808 126.437 366.205V372.421ZM120.053 374.157C121.267 374.157 122.219 373.551 122.909 372.337V369.341H121.425C119.111 369.341 117.953 370.2 117.953 371.917C117.953 372.627 118.131 373.177 118.485 373.569C118.84 373.961 119.363 374.157 120.053 374.157ZM138.082 361.137C138.624 361.137 139.118 361.203 139.566 361.333L138.95 364.805C138.502 364.693 138.064 364.637 137.634 364.637C136.757 364.637 136.066 364.955 135.562 365.589C135.058 366.205 134.657 367.157 134.358 368.445V376.341H130.774V361.529H133.882L134.218 364.441C134.573 363.377 135.086 362.565 135.758 362.005C136.43 361.427 137.205 361.137 138.082 361.137ZM153.098 368.585C153.098 368.772 153.07 369.257 153.014 370.041H143.718C143.83 371.479 144.204 372.505 144.838 373.121C145.473 373.737 146.313 374.045 147.358 374.045C148.012 374.045 148.628 373.943 149.206 373.737C149.785 373.513 150.401 373.177 151.054 372.729L152.538 374.773C150.896 376.099 149.066 376.761 147.05 376.761C144.792 376.761 143.046 376.071 141.814 374.689C140.601 373.308 139.994 371.423 139.994 369.033C139.994 367.521 140.256 366.168 140.778 364.973C141.301 363.76 142.057 362.817 143.046 362.145C144.036 361.455 145.212 361.109 146.574 361.109C148.646 361.109 150.252 361.772 151.39 363.097C152.529 364.404 153.098 366.233 153.098 368.585ZM149.542 367.549C149.542 364.955 148.581 363.657 146.658 363.657C145.781 363.657 145.09 363.984 144.586 364.637C144.101 365.272 143.812 366.299 143.718 367.717H149.542V367.549ZM166.988 372.421C166.988 373 167.072 373.429 167.24 373.709C167.427 373.971 167.716 374.176 168.108 374.325L167.352 376.705C166.512 376.631 165.821 376.425 165.28 376.089C164.757 375.753 164.356 375.24 164.076 374.549C163.572 375.296 162.937 375.856 162.172 376.229C161.425 376.584 160.585 376.761 159.652 376.761C158.177 376.761 157.011 376.341 156.152 375.501C155.293 374.661 154.864 373.56 154.864 372.197C154.864 370.592 155.443 369.369 156.6 368.529C157.776 367.671 159.447 367.241 161.612 367.241H163.46V366.401C163.46 365.449 163.236 364.787 162.788 364.413C162.359 364.021 161.659 363.825 160.688 363.825C159.605 363.825 158.299 364.087 156.768 364.609L155.928 362.173C157.776 361.464 159.568 361.109 161.304 361.109C165.093 361.109 166.988 362.808 166.988 366.205V372.421ZM160.604 374.157C161.817 374.157 162.769 373.551 163.46 372.337V369.341H161.976C159.661 369.341 158.504 370.2 158.504 371.917C158.504 372.627 158.681 373.177 159.036 373.569C159.391 373.961 159.913 374.157 160.604 374.157ZM182.665 357.161C183.916 357.161 184.989 357.376 185.885 357.805C186.8 358.235 187.481 358.813 187.929 359.541C188.396 360.269 188.629 361.072 188.629 361.949C188.629 363.088 188.302 364.04 187.649 364.805C186.996 365.552 186.1 366.075 184.961 366.373C186.212 366.485 187.238 366.933 188.041 367.717C188.844 368.501 189.245 369.584 189.245 370.965C189.245 372.048 188.965 373.028 188.405 373.905C187.864 374.783 187.08 375.483 186.053 376.005C185.026 376.509 183.813 376.761 182.413 376.761C179.837 376.761 177.802 375.856 176.309 374.045L178.297 372.141C178.932 372.776 179.557 373.243 180.173 373.541C180.789 373.821 181.47 373.961 182.217 373.961C183.225 373.961 184.028 373.681 184.625 373.121C185.241 372.543 185.549 371.768 185.549 370.797C185.549 369.715 185.26 368.94 184.681 368.473C184.121 368.007 183.281 367.773 182.161 367.773H180.677L181.097 365.225H182.105C183.02 365.225 183.748 364.973 184.289 364.469C184.849 363.965 185.129 363.265 185.129 362.369C185.129 361.604 184.877 361.007 184.373 360.577C183.869 360.129 183.197 359.905 182.357 359.905C181.629 359.905 180.966 360.045 180.369 360.325C179.772 360.587 179.174 360.997 178.577 361.557L176.757 359.569C178.456 357.964 180.425 357.161 182.665 357.161Z" fill="black"/>
<ellipse cx="44.2055" cy="363.415" rx="23.8949" ry="24.3902" fill="#22C55E"/>
<ellipse cx="44.2055" cy="357.317" rx="11.9474" ry="12.1951" fill="black"/>
<path d="M61.5293 380.488C57.945 383.537 54.1066 387.805 44.209 387.805C34.0502 387.805 27.4791 381.098 26.8852 380.188C26.8852 372.105 34.3114 371.651 44.209 371.651C54.1066 371.651 61.5293 372.406 61.5293 380.488Z" fill="black"/>
<path d="M114.02 469.189L113.628 472.129H108.588V488.537H104.864V472.129H99.6555V469.189H114.02ZM125.877 484.617C125.877 485.195 125.961 485.625 126.129 485.905C126.315 486.166 126.605 486.371 126.997 486.521L126.241 488.901C125.401 488.826 124.71 488.621 124.169 488.285C123.646 487.949 123.245 487.435 122.965 486.745C122.461 487.491 121.826 488.051 121.061 488.425C120.314 488.779 119.474 488.957 118.541 488.957C117.066 488.957 115.899 488.537 115.041 487.697C114.182 486.857 113.753 485.755 113.753 484.393C113.753 482.787 114.331 481.565 115.489 480.725C116.665 479.866 118.335 479.437 120.501 479.437H122.349V478.597C122.349 477.645 122.125 476.982 121.677 476.609C121.247 476.217 120.547 476.021 119.577 476.021C118.494 476.021 117.187 476.282 115.657 476.805L114.817 474.369C116.665 473.659 118.457 473.305 120.193 473.305C123.982 473.305 125.877 475.003 125.877 478.401V484.617ZM119.493 486.353C120.706 486.353 121.658 485.746 122.349 484.533V481.537H120.865C118.55 481.537 117.393 482.395 117.393 484.113C117.393 484.822 117.57 485.373 117.925 485.765C118.279 486.157 118.802 486.353 119.493 486.353ZM137.522 473.333C138.063 473.333 138.558 473.398 139.006 473.529L138.39 477.001C137.942 476.889 137.503 476.833 137.074 476.833C136.196 476.833 135.506 477.15 135.002 477.785C134.498 478.401 134.096 479.353 133.798 480.641V488.537H130.214V473.725H133.322L133.658 476.637C134.012 475.573 134.526 474.761 135.198 474.201C135.87 473.622 136.644 473.333 137.522 473.333ZM152.538 480.781C152.538 480.967 152.51 481.453 152.454 482.237H143.158C143.27 483.674 143.643 484.701 144.278 485.317C144.912 485.933 145.752 486.241 146.798 486.241C147.451 486.241 148.067 486.138 148.646 485.933C149.224 485.709 149.84 485.373 150.494 484.925L151.978 486.969C150.335 488.294 148.506 488.957 146.49 488.957C144.231 488.957 142.486 488.266 141.254 486.885C140.04 485.503 139.434 483.618 139.434 481.229C139.434 479.717 139.695 478.363 140.218 477.169C140.74 475.955 141.496 475.013 142.486 474.341C143.475 473.65 144.651 473.305 146.014 473.305C148.086 473.305 149.691 473.967 150.83 475.293C151.968 476.599 152.538 478.429 152.538 480.781ZM148.982 479.745C148.982 477.15 148.02 475.853 146.098 475.853C145.22 475.853 144.53 476.179 144.026 476.833C143.54 477.467 143.251 478.494 143.158 479.913H148.982V479.745ZM166.427 484.617C166.427 485.195 166.511 485.625 166.679 485.905C166.866 486.166 167.155 486.371 167.547 486.521L166.791 488.901C165.951 488.826 165.261 488.621 164.719 488.285C164.197 487.949 163.795 487.435 163.515 486.745C163.011 487.491 162.377 488.051 161.611 488.425C160.865 488.779 160.025 488.957 159.091 488.957C157.617 488.957 156.45 488.537 155.591 487.697C154.733 486.857 154.303 485.755 154.303 484.393C154.303 482.787 154.882 481.565 156.039 480.725C157.215 479.866 158.886 479.437 161.051 479.437H162.899V478.597C162.899 477.645 162.675 476.982 162.227 476.609C161.798 476.217 161.098 476.021 160.127 476.021C159.045 476.021 157.738 476.282 156.207 476.805L155.367 474.369C157.215 473.659 159.007 473.305 160.743 473.305C164.533 473.305 166.427 475.003 166.427 478.401V484.617ZM160.043 486.353C161.257 486.353 162.209 485.746 162.899 484.533V481.537H161.415C159.101 481.537 157.943 482.395 157.943 484.113C157.943 484.822 158.121 485.373 158.475 485.765C158.83 486.157 159.353 486.353 160.043 486.353ZM190.309 481.481V484.225H188.041V488.537H184.541V484.225H176.533V481.761L182.021 469.329L185.073 470.477L180.257 481.481H184.569L184.933 476.749H188.041V481.481H190.309Z" fill="black"/>
<ellipse cx="44.2055" cy="475.61" rx="23.8949" ry="24.3902" fill="#2F4858"/>
<ellipse cx="44.2055" cy="469.512" rx="11.9474" ry="12.1951" fill="black"/>
<path d="M61.5293 492.683C57.945 495.732 54.1066 500 44.209 500C34.0502 500 27.4791 493.293 26.8852 492.383C26.8852 484.3 34.3114 483.846 44.209 483.846C54.1066 483.846 61.5293 484.601 61.5293 492.683Z" fill="black"/>
</svg>
