<svg width="75" height="77" viewBox="0 0 75 77" fill="none" xmlns="http://www.w3.org/2000/svg">
<rect width="75" height="77" rx="10" fill="white"/>
<path d="M51.05 55.1H15.5C11.3579 55.1 8 58.234 8 62.1C8 65.966 11.3579 69.1 15.5 69.1H51.05C55.1921 69.1 58.55 65.966 58.55 62.1C58.55 58.234 55.1921 55.1 51.05 55.1Z" fill="#F26363"/>
<path d="M29.3 32H15.5C11.3579 32 8 35.134 8 39C8 42.866 11.3579 46 15.5 46H29.3C33.4421 46 36.8 42.866 36.8 39C36.8 35.134 33.4421 32 29.3 32Z" fill="#7BD4ED"/>
<path d="M60.5 8.89999H15.5C11.3579 8.89999 8 12.034 8 15.9C8 19.766 11.3579 22.9 15.5 22.9H60.5C64.6421 22.9 68 19.766 68 15.9C68 12.034 64.6421 8.89999 60.5 8.89999Z" fill="#22C55E"/>
<path d="M40.8125 4V74" stroke="#DEDE54" stroke-width="2" stroke-linecap="round"/>
</svg>
