<svg width="24" height="25" viewBox="0 0 24 25" fill="none" xmlns="http://www.w3.org/2000/svg">
<path d="M4.40039 15.5H15.7764C16.8255 15.5002 17.6758 16.3512 17.6758 17.4004C17.6756 18.4494 16.8254 19.2996 15.7764 19.2998H4.40039C3.35118 19.2998 2.50021 18.4496 2.5 17.4004C2.5 16.351 3.35105 15.5 4.40039 15.5Z" stroke="#1E293B"/>
<path d="M4.40039 9.5H8.81641C9.86556 9.50022 10.7158 10.3512 10.7158 11.4004C10.7156 12.4494 9.86543 13.2996 8.81641 13.2998H4.40039C3.35118 13.2998 2.50021 12.4496 2.5 11.4004C2.5 10.351 3.35105 9.5 4.40039 9.5Z" stroke="#1E293B"/>
<path d="M4.08044 3.18005H18.4799C19.5292 3.18005 20.3802 4.0311 20.3802 5.08044C20.38 6.12961 19.5291 6.97986 18.4799 6.97986H4.08044C3.03123 6.97986 2.18026 6.12961 2.18005 5.08044C2.18005 4.09658 2.92787 3.28697 3.88611 3.18982L4.08044 3.18005Z" stroke="#1E293B"/>
<path d="M12 1V21" stroke="#1E293B" stroke-width="2" stroke-linecap="round"/>
</svg>
