<svg width="349" height="77" viewBox="0 0 349 77" fill="none" xmlns="http://www.w3.org/2000/svg">
<rect width="75" height="77" rx="10" fill="white"/>
<path d="M51.05 55.1H15.5C11.3579 55.1 8 58.234 8 62.1C8 65.966 11.3579 69.1 15.5 69.1H51.05C55.1921 69.1 58.55 65.966 58.55 62.1C58.55 58.234 55.1921 55.1 51.05 55.1Z" fill="#F26363"/>
<path d="M29.3 32H15.5C11.3579 32 8 35.134 8 39C8 42.866 11.3579 46 15.5 46H29.3C33.4421 46 36.8 42.866 36.8 39C36.8 35.134 33.4421 32 29.3 32Z" fill="#7BD4ED"/>
<path d="M60.5 8.89999H15.5C11.3579 8.89999 8 12.034 8 15.9C8 19.766 11.3579 22.9 15.5 22.9H60.5C64.6421 22.9 68 19.766 68 15.9C68 12.034 64.6421 8.89999 60.5 8.89999Z" fill="#22C55E"/>
<path d="M40.8125 4V74" stroke="#DEDE54" stroke-width="2" stroke-linecap="round"/>
<g filter="url(#filter0_d_6051_205)">
<path d="M118.479 42.375C118.24 41.5455 117.905 40.8125 117.473 40.1761C117.041 39.5284 116.513 38.983 115.888 38.5398C115.274 38.0852 114.57 37.7386 113.774 37.5C112.99 37.2614 112.121 37.142 111.166 37.142C109.382 37.142 107.814 37.5852 106.462 38.4716C105.121 39.358 104.075 40.6477 103.325 42.3409C102.575 44.0227 102.2 46.0795 102.2 48.5114C102.2 50.9432 102.57 53.0114 103.308 54.7159C104.047 56.4205 105.092 57.7216 106.445 58.6193C107.797 59.5057 109.393 59.9489 111.234 59.9489C112.905 59.9489 114.331 59.6534 115.513 59.0625C116.706 58.4602 117.615 57.6136 118.24 56.5227C118.876 55.4318 119.195 54.142 119.195 52.6534L120.695 52.875H111.695V47.3182H126.303V51.7159C126.303 54.7841 125.655 57.4205 124.359 59.625C123.064 61.8182 121.28 63.5114 119.007 64.7045C116.734 65.8864 114.132 66.4773 111.2 66.4773C107.928 66.4773 105.053 65.7557 102.575 64.3125C100.098 62.858 98.1662 60.7955 96.7798 58.125C95.4048 55.4432 94.7173 52.2614 94.7173 48.5795C94.7173 45.75 95.1264 43.2273 95.9446 41.0114C96.7741 38.7841 97.9332 36.8977 99.4219 35.3523C100.911 33.8068 102.643 32.6307 104.621 31.8239C106.598 31.017 108.74 30.6136 111.047 30.6136C113.024 30.6136 114.865 30.9034 116.57 31.483C118.274 32.0511 119.786 32.858 121.104 33.9034C122.433 34.9489 123.518 36.1932 124.359 37.6364C125.2 39.0682 125.74 40.6477 125.979 42.375H118.479ZM139.176 66.4943C137.506 66.4943 136.017 66.2045 134.71 65.625C133.403 65.0341 132.369 64.1648 131.608 63.017C130.858 61.858 130.483 60.4148 130.483 58.6875C130.483 57.233 130.75 56.0114 131.284 55.0227C131.818 54.0341 132.545 53.2386 133.466 52.6364C134.386 52.0341 135.432 51.5795 136.602 51.2727C137.784 50.9659 139.023 50.75 140.318 50.625C141.841 50.4659 143.068 50.3182 144 50.1818C144.932 50.0341 145.608 49.8182 146.028 49.5341C146.449 49.25 146.659 48.8295 146.659 48.2727V48.1705C146.659 47.0909 146.318 46.2557 145.636 45.6648C144.966 45.0739 144.011 44.7784 142.773 44.7784C141.466 44.7784 140.426 45.0682 139.653 45.6477C138.881 46.2159 138.369 46.9318 138.119 47.7955L131.403 47.25C131.744 45.6591 132.415 44.2841 133.415 43.125C134.415 41.9545 135.705 41.0568 137.284 40.4318C138.875 39.7955 140.716 39.4773 142.807 39.4773C144.261 39.4773 145.653 39.6477 146.983 39.9886C148.324 40.3295 149.511 40.858 150.545 41.5739C151.591 42.2898 152.415 43.2102 153.017 44.3352C153.619 45.4489 153.92 46.7841 153.92 48.3409V66H147.034V62.3693H146.83C146.409 63.1875 145.847 63.9091 145.142 64.5341C144.438 65.1477 143.591 65.6307 142.602 65.983C141.614 66.3239 140.472 66.4943 139.176 66.4943ZM141.256 61.483C142.324 61.483 143.267 61.2727 144.085 60.8523C144.903 60.4205 145.545 59.8409 146.011 59.1136C146.477 58.3864 146.71 57.5625 146.71 56.642V53.8636C146.483 54.0114 146.17 54.1477 145.773 54.2727C145.386 54.3864 144.949 54.4943 144.46 54.5966C143.972 54.6875 143.483 54.7727 142.994 54.8523C142.506 54.9205 142.062 54.983 141.665 55.0398C140.813 55.1648 140.068 55.3636 139.432 55.6364C138.795 55.9091 138.301 56.2784 137.949 56.7443C137.597 57.1989 137.42 57.767 137.42 58.4489C137.42 59.4375 137.778 60.1932 138.494 60.7159C139.222 61.2273 140.142 61.483 141.256 61.483ZM166.815 50.8636V66H159.554V39.8182H166.474V44.4375H166.781C167.361 42.9148 168.332 41.7102 169.696 40.8239C171.06 39.9261 172.713 39.4773 174.656 39.4773C176.474 39.4773 178.06 39.875 179.412 40.6705C180.764 41.4659 181.815 42.6023 182.565 44.0795C183.315 45.5455 183.69 47.2955 183.69 49.3295V66H176.429V50.625C176.44 49.0227 176.031 47.7727 175.202 46.875C174.372 45.9659 173.23 45.5114 171.776 45.5114C170.798 45.5114 169.935 45.7216 169.185 46.142C168.446 46.5625 167.866 47.1761 167.446 47.983C167.037 48.7784 166.827 49.7386 166.815 50.8636ZM203.339 39.8182V45.2727H187.572V39.8182H203.339ZM191.152 33.5455H198.413V57.9545C198.413 58.625 198.516 59.1477 198.72 59.5227C198.925 59.8864 199.209 60.142 199.572 60.2898C199.947 60.4375 200.379 60.5114 200.868 60.5114C201.209 60.5114 201.55 60.483 201.891 60.4261C202.232 60.358 202.493 60.3068 202.675 60.2727L203.817 65.6761C203.453 65.7898 202.942 65.9205 202.283 66.0682C201.624 66.2273 200.822 66.3239 199.879 66.358C198.129 66.4261 196.595 66.1932 195.277 65.6591C193.97 65.125 192.953 64.2955 192.226 63.1705C191.499 62.0455 191.141 60.625 191.152 58.9091V33.5455ZM221.996 39.8182V45.2727H206.229V39.8182H221.996ZM209.808 33.5455H217.07V57.9545C217.07 58.625 217.172 59.1477 217.376 59.5227C217.581 59.8864 217.865 60.142 218.229 60.2898C218.604 60.4375 219.036 60.5114 219.524 60.5114C219.865 60.5114 220.206 60.483 220.547 60.4261C220.888 60.358 221.149 60.3068 221.331 60.2727L222.473 65.6761C222.109 65.7898 221.598 65.9205 220.939 66.0682C220.28 66.2273 219.479 66.3239 218.536 66.358C216.786 66.4261 215.251 66.1932 213.933 65.6591C212.626 65.125 211.609 64.2955 210.882 63.1705C210.155 62.0455 209.797 60.625 209.808 58.9091V33.5455ZM237.972 66V31.0909H261.085V37.1761H245.352V45.4943H259.551V51.5795H245.352V66H237.972ZM273.175 31.0909V66H265.913V31.0909H273.175ZM290.821 66.5114C288.173 66.5114 285.884 65.9489 283.952 64.8239C282.031 63.6875 280.548 62.108 279.503 60.0852C278.457 58.0511 277.935 55.6932 277.935 53.0114C277.935 50.3068 278.457 47.9432 279.503 45.9205C280.548 43.8864 282.031 42.3068 283.952 41.1818C285.884 40.0455 288.173 39.4773 290.821 39.4773C293.469 39.4773 295.753 40.0455 297.673 41.1818C299.605 42.3068 301.094 43.8864 302.139 45.9205C303.185 47.9432 303.707 50.3068 303.707 53.0114C303.707 55.6932 303.185 58.0511 302.139 60.0852C301.094 62.108 299.605 63.6875 297.673 64.8239C295.753 65.9489 293.469 66.5114 290.821 66.5114ZM290.855 60.8864C292.06 60.8864 293.065 60.5455 293.872 59.8636C294.679 59.1705 295.287 58.2273 295.696 57.0341C296.116 55.8409 296.327 54.483 296.327 52.9602C296.327 51.4375 296.116 50.0795 295.696 48.8864C295.287 47.6932 294.679 46.75 293.872 46.0568C293.065 45.3636 292.06 45.017 290.855 45.017C289.639 45.017 288.616 45.3636 287.787 46.0568C286.969 46.75 286.349 47.6932 285.929 48.8864C285.52 50.0795 285.315 51.4375 285.315 52.9602C285.315 54.483 285.52 55.8409 285.929 57.0341C286.349 58.2273 286.969 59.1705 287.787 59.8636C288.616 60.5455 289.639 60.8864 290.855 60.8864ZM312.938 66L305.812 39.8182H313.159L317.216 57.4091H317.455L321.682 39.8182H328.892L333.188 57.3068H333.409L337.398 39.8182H344.727L337.619 66H329.932L325.432 49.5341H325.108L320.608 66H312.938Z" fill="white"/>
</g>
<defs>
<filter id="filter0_d_6051_205" x="90.7173" y="30.6136" width="258.01" height="43.8977" filterUnits="userSpaceOnUse" color-interpolation-filters="sRGB">
<feFlood flood-opacity="0" result="BackgroundImageFix"/>
<feColorMatrix in="SourceAlpha" type="matrix" values="0 0 0 0 0 0 0 0 0 0 0 0 0 0 0 0 0 0 127 0" result="hardAlpha"/>
<feOffset dy="4"/>
<feGaussianBlur stdDeviation="2"/>
<feComposite in2="hardAlpha" operator="out"/>
<feColorMatrix type="matrix" values="0 0 0 0 0 0 0 0 0 0 0 0 0 0 0 0 0 0 0.25 0"/>
<feBlend mode="normal" in2="BackgroundImageFix" result="effect1_dropShadow_6051_205"/>
<feBlend mode="normal" in="SourceGraphic" in2="effect1_dropShadow_6051_205" result="shape"/>
</filter>
</defs>
</svg>
