<svg width="24" height="24" viewBox="0 0 24 24" fill="none" xmlns="http://www.w3.org/2000/svg">
<path d="M5.68234 7.21231C8.31801 4.61458 9.63585 3.31572 11.225 3.06638C11.7385 2.98581 12.2615 2.98581 12.775 3.06638C14.3642 3.31572 15.682 4.61458 18.3177 7.21231V7.21231C19.492 8.36972 20.0791 8.94842 20.4451 9.65907C20.5662 9.89408 20.6684 10.1383 20.7508 10.3895C21 11.149 21 11.9734 21 13.6222V17.6977C21 19.3545 19.6569 20.6977 18 20.6977V20.6977C16.3431 20.6977 15 19.3546 15 17.6977V16.7985C15 15.1416 13.6569 13.7985 12 13.7985V13.7985C10.3431 13.7985 9 15.1416 9 16.7985V17.6977C9 19.3545 7.65685 20.6977 6 20.6977V20.6977C4.34315 20.6977 3 19.3546 3 17.6977V13.6222C3 11.9734 3 11.149 3.24922 10.3895C3.33164 10.1383 3.43385 9.89408 3.55488 9.65907C3.92088 8.94842 4.50803 8.36972 5.68234 7.21231V7.21231Z" stroke="#1E293B" stroke-width="1.5" stroke-linejoin="round"/>
</svg>
