<svg width="24" height="25" viewBox="0 0 24 25" fill="none" xmlns="http://www.w3.org/2000/svg">
<path d="M12 12.2383H21M21 12.2383L18.5 9.75881M21 12.2383L18.5 14.7177M15 8.76703V8.71226C15 6.46242 15 5.3375 14.4271 4.5489C14.242 4.29422 14.018 4.07024 13.7634 3.8852C12.9748 3.31226 11.8498 3.31226 9.6 3.31226H8.4C6.15016 3.31226 5.02524 3.31226 4.23664 3.8852C3.98196 4.07024 3.75799 4.29422 3.57295 4.5489C3 5.3375 3 6.46242 3 8.71226V15.7643C3 18.0141 3 19.139 3.57295 19.9276C3.75799 20.1823 3.98196 20.4063 4.23664 20.5913C5.02524 21.1643 6.15016 21.1643 8.4 21.1643H9.6C11.8498 21.1643 12.9748 21.1643 13.7634 20.5913C14.018 20.4063 14.242 20.1823 14.4271 19.9276C15 19.139 15 18.0141 15 15.7643V15.7095" stroke="#1E293B" stroke-width="1.5" stroke-linecap="round" stroke-linejoin="round"/>
</svg>
