<svg width="149" height="37" viewBox="0 0 149 37" fill="none" xmlns="http://www.w3.org/2000/svg">
<path d="M22.54 26.55H5.95C4.017 26.55 2.45 28.117 2.45 30.05C2.45 31.983 4.017 33.55 5.95 33.55H22.54C24.473 33.55 26.04 31.983 26.04 30.05C26.04 28.117 24.473 26.55 22.54 26.55Z" fill="#F26363"/>
<path d="M12.39 15H5.95C4.017 15 2.45 16.567 2.45 18.5C2.45 20.433 4.017 22 5.95 22H12.39C14.323 22 15.89 20.433 15.89 18.5C15.89 16.567 14.323 15 12.39 15Z" fill="#7BD4ED"/>
<path d="M26.95 3.45H5.95C4.017 3.45 2.45 5.017 2.45 6.95C2.45 8.883 4.017 10.45 5.95 10.45H26.95C28.883 10.45 30.45 8.883 30.45 6.95C30.45 5.017 28.883 3.45 26.95 3.45Z" fill="#22C55E"/>
<path d="M17.7625 1V36" stroke="#DEDE54" stroke-width="2" stroke-linecap="round"/>
<g clip-path="url(#clip0_6092_104)">
<path d="M48.2812 20.1979C48.2812 20.6918 48.2562 21.194 48.2063 21.7044C48.1564 22.1983 48.0566 22.684 47.9068 23.1615C47.7571 23.6225 47.5325 24.0671 47.233 24.4952C46.9336 24.9068 46.5259 25.269 46.0102 25.5818C45.7606 25.7465 45.4612 25.8864 45.1118 26.0017C44.779 26.1005 44.4214 26.1828 44.0387 26.2486C43.6727 26.331 43.3067 26.3804 42.9407 26.3968C42.5746 26.4298 42.2336 26.438 41.9175 26.4215C40.4201 26.3721 39.2056 26.0181 38.2739 25.3595C37.3589 24.6845 36.6518 23.853 36.1527 22.8652C35.6702 21.8773 35.3541 20.8071 35.2044 19.6545C35.0713 18.4855 35.0463 17.3742 35.1295 16.3205C35.1794 15.6948 35.2876 15.0198 35.454 14.2953C35.637 13.5708 35.8948 12.8711 36.2276 12.1961C36.577 11.521 37.0012 10.9118 37.5003 10.3685C38.0161 9.82515 38.6233 9.41353 39.3221 9.13364C39.9709 8.8702 40.678 8.70556 41.4433 8.6397C42.2253 8.55737 42.9906 8.58207 43.7392 8.71379C44.5045 8.8455 45.2116 9.08424 45.8605 9.43C46.5259 9.77576 47.05 10.2368 47.4327 10.813C47.6989 11.2411 47.9068 11.7598 48.0566 12.3689C48.2063 12.9781 48.2313 13.5626 48.1314 14.1224C48.0482 14.6164 47.8736 14.9621 47.6074 15.1597C47.3412 15.3408 47.05 15.4149 46.7339 15.382C46.4178 15.3326 46.11 15.2008 45.8106 14.9868C45.5277 14.7563 45.3364 14.4682 45.2366 14.1224C45.1201 13.7437 44.9787 13.398 44.8123 13.0852C44.646 12.7558 44.3881 12.4842 44.0387 12.2702C43.6394 12.0232 43.2152 11.8832 42.766 11.8503C42.3334 11.8174 41.9091 11.8668 41.4932 11.9985C41.0939 12.1302 40.7113 12.336 40.3453 12.6159C39.9959 12.8958 39.7047 13.2169 39.4718 13.5791C39.189 13.9907 38.9727 14.4435 38.823 14.9374C38.6732 15.4149 38.5651 15.9171 38.4985 16.4439C38.432 16.9543 38.407 17.473 38.4237 17.9998C38.457 18.5102 38.5235 19.0042 38.6233 19.4817C38.8063 20.2884 39.0892 21.0458 39.4718 21.7538C39.6215 22.0172 39.8212 22.256 40.0708 22.47C40.3369 22.6676 40.6281 22.8322 40.9442 22.9639C41.2603 23.0792 41.593 23.1533 41.9424 23.1862C42.2918 23.2192 42.6246 23.1945 42.9407 23.1121C43.3899 22.9969 43.7559 22.8487 44.0387 22.6676C44.3215 22.47 44.5461 22.2395 44.7125 21.9761C44.8789 21.7126 44.987 21.4245 45.0369 21.1117C45.1035 20.7988 45.1368 20.4695 45.1368 20.1238V20.0991C44.9205 20.0991 44.7291 20.0991 44.5628 20.0991C44.3964 20.0826 44.2716 20.0744 44.1884 20.0744C43.8224 20.0744 43.4647 20.0085 43.1153 19.8768C42.8159 19.778 42.5913 19.6216 42.4415 19.4076C42.2752 19.2265 42.192 19.0042 42.192 18.7408C42.192 18.642 42.192 18.5514 42.192 18.4691C42.2086 18.3703 42.2253 18.2715 42.2419 18.1727C42.2918 18.041 42.4 17.8764 42.5663 17.6788C42.6661 17.5965 42.8242 17.5306 43.0405 17.4812C43.1403 17.4483 43.2401 17.4236 43.3399 17.4071C43.4398 17.3742 43.5562 17.3495 43.6893 17.333C43.7891 17.3166 43.8973 17.3083 44.0137 17.3083C44.1302 17.3083 44.2467 17.3083 44.3631 17.3083H46.6341C46.8171 17.2919 47.0251 17.3166 47.258 17.3824C47.5075 17.4318 47.6989 17.5142 47.832 17.6294C47.8819 17.6952 47.9318 17.7611 47.9817 17.827C48.0316 17.8928 48.0732 17.9669 48.1065 18.0492C48.173 18.2304 48.2146 18.4115 48.2313 18.5926C48.2479 18.6914 48.2562 18.7984 48.2562 18.9136C48.2728 19.0124 48.2812 19.103 48.2812 19.1853V20.1979ZM53.2068 15.6783C53.7059 15.4314 54.23 15.2585 54.779 15.1597C55.328 15.0445 55.8687 15.0198 56.4011 15.0856C56.9502 15.135 57.4742 15.2749 57.9733 15.5055C58.4725 15.7195 58.9383 16.0323 59.3709 16.4439C59.8034 16.872 60.1362 17.3413 60.3691 17.8517C60.602 18.3621 60.7684 18.9301 60.8682 19.5558C60.9347 19.9838 61.0429 20.379 61.1926 20.7412C61.3424 21.1034 61.5004 21.4657 61.6668 21.8279C61.8498 22.1901 62.0162 22.5523 62.1659 22.9145C62.3323 23.2768 62.4654 23.6555 62.5652 24.0506C62.6484 24.4293 62.6151 24.7998 62.4654 25.162C62.3323 25.5077 62.0494 25.7218 61.6169 25.8041C61.3673 25.8535 61.1261 25.837 60.8932 25.7547C60.6769 25.6559 60.4772 25.5242 60.2942 25.3595C60.1112 25.1784 59.9448 24.9891 59.7951 24.7915C59.662 24.5775 59.5372 24.3799 59.4208 24.1988C59.0381 24.6927 58.6222 25.0796 58.173 25.3595C57.7238 25.623 57.1831 25.7958 56.5509 25.8782C56.0185 25.944 55.511 25.9605 55.0286 25.9276C54.5461 25.8946 54.0303 25.8041 53.4813 25.6559C52.7659 25.4748 52.1753 25.162 51.7095 24.7174C51.2603 24.2564 50.9109 23.7295 50.6613 23.1368C50.4284 22.5276 50.3036 21.8773 50.287 21.1858C50.2703 20.4942 50.3535 19.811 50.5366 19.1359C50.7695 18.2468 51.1188 17.5224 51.5847 16.9626C52.0505 16.4028 52.5912 15.9747 53.2068 15.6783ZM53.8307 18.5679C53.5978 18.7984 53.4148 19.0701 53.2817 19.3829C53.1486 19.6957 53.0654 20.025 53.0321 20.3708C53.0155 20.7165 53.0487 21.0623 53.1319 21.408C53.2151 21.7538 53.3482 22.0584 53.5312 22.3218C53.6976 22.5523 53.9804 22.7499 54.3797 22.9145C54.779 23.0627 55.1949 23.1533 55.6275 23.1862C56.1266 23.2192 56.5592 23.0874 56.9252 22.7911C57.3078 22.4947 57.5907 22.1242 57.7737 21.6797C57.9733 21.2187 58.0648 20.733 58.0482 20.2226C58.0316 19.6957 57.8901 19.2182 57.624 18.7902C57.4243 18.4773 57.1581 18.2468 56.8254 18.0986C56.5093 17.9505 56.1682 17.8764 55.8022 17.8764C55.4362 17.8599 55.0702 17.9175 54.7041 18.0492C54.3548 18.1645 54.0636 18.3374 53.8307 18.5679ZM64.6663 17.2589C64.6663 16.8802 64.658 16.4769 64.6414 16.0488C64.6414 15.6207 64.7162 15.2338 64.866 14.888C64.9991 14.5752 65.2154 14.3529 65.5148 14.2212C65.8308 14.073 66.1386 14.0401 66.438 14.1224C66.7375 14.1718 66.9705 14.2624 67.1368 14.3941C67.3034 14.5258 67.4197 14.6822 67.4862 14.8633C67.5695 15.028 67.6194 15.2255 67.6359 15.4561C67.6527 15.6701 67.6693 15.8842 67.6858 16.0982C67.8524 15.8018 68.0603 15.5631 68.3099 15.382C68.5594 15.2008 68.8172 15.0527 69.0833 14.9374C69.3497 14.8222 69.5993 14.7398 69.832 14.6905C70.0816 14.6411 70.2729 14.6164 70.4061 14.6164C71.0385 14.6164 71.6622 14.7563 72.2777 15.0362C72.91 15.2996 73.4342 15.6783 73.85 16.1723C74.083 16.4686 74.2576 16.7815 74.3739 17.1108C74.5071 17.4236 74.5987 17.7529 74.6486 18.0986C74.7151 18.4444 74.7567 18.7984 74.7732 19.1606C74.7901 19.5064 74.8066 19.8604 74.8231 20.2226C74.9064 21.2763 74.9064 22.3218 74.8231 23.3591C74.8066 23.5731 74.7983 23.8201 74.7983 24.1C74.7983 24.3799 74.7732 24.6598 74.7233 24.9397C74.6903 25.2031 74.6152 25.4419 74.4989 25.6559C74.399 25.8535 74.2242 25.977 73.9746 26.0264C73.6253 26.1087 73.3344 26.1252 73.1014 26.0758C72.8852 26.0428 72.7103 25.9687 72.5771 25.8535C72.4442 25.7382 72.3444 25.5901 72.2777 25.4089C72.2112 25.2278 72.153 25.022 72.1031 24.7915C72.0698 24.6104 72.0367 24.4046 72.0033 24.1741C71.9868 23.9271 71.9699 23.6802 71.9534 23.4332C71.9534 23.1862 71.9451 22.9475 71.9283 22.717C71.9283 22.47 71.9283 22.2477 71.9283 22.0502C71.9283 21.7373 71.92 21.3916 71.9035 21.0129C71.8869 20.6342 71.8869 20.2802 71.9035 19.9509C71.9035 19.1771 71.6956 18.5926 71.2794 18.1974C70.8801 17.7858 70.3311 17.6129 69.6324 17.6788C69.1002 17.7446 68.6341 17.9587 68.2348 18.3209C67.8356 18.6667 67.6445 19.1195 67.661 19.6792C67.661 19.8933 67.661 20.0908 67.661 20.272C67.661 20.4531 67.6527 20.6342 67.6359 20.8153C67.6359 20.9964 67.6359 21.194 67.6359 21.408C67.6359 21.6221 67.6359 21.8608 67.6359 22.1242C67.6359 22.6676 67.6359 23.2438 67.6359 23.853C67.6359 24.4458 67.5612 24.9315 67.4115 25.3102C67.2783 25.7053 67.0538 25.977 66.7375 26.1252C66.4215 26.2733 66.0473 26.2322 65.6147 26.0017C65.4316 25.9029 65.2819 25.7712 65.1654 25.6065C65.0656 25.4254 64.9824 25.2361 64.9159 25.0385C64.866 24.8409 64.8327 24.6433 64.8161 24.4458C64.7994 24.2317 64.7828 24.0342 64.7662 23.853C64.7162 23.3097 64.683 22.8075 64.6663 22.3465C64.6663 21.869 64.6663 21.3586 64.6663 20.8153V17.2589ZM86.5566 15.1844C86.6898 15.4972 86.6981 15.843 86.5817 16.2217C86.4819 16.6004 86.2905 16.8473 86.0076 16.9626C85.8578 17.0284 85.6582 17.0861 85.4086 17.1355C85.1591 17.1684 84.8847 17.2013 84.5853 17.2342C84.3023 17.2672 84.0197 17.2919 83.7368 17.3083C83.4538 17.3248 83.2125 17.333 83.0129 17.333C83.0297 17.827 83.0463 18.3374 83.0628 18.8642C83.0796 19.3746 83.0962 19.8768 83.1127 20.3708C83.1296 20.8647 83.1378 21.3422 83.1378 21.8032C83.1378 22.2477 83.1296 22.6511 83.1127 23.0133C83.1127 23.2603 83.1127 23.5484 83.1127 23.8777C83.1127 24.1905 83.0879 24.4952 83.038 24.7915C83.0046 25.0879 82.9464 25.3513 82.8632 25.5818C82.7802 25.7958 82.6552 25.9358 82.489 26.0017C81.9733 26.2157 81.499 26.2733 81.0664 26.1745C80.6505 26.0922 80.3511 25.9193 80.1679 25.6559C80.0351 25.4419 79.9352 25.1949 79.8685 24.915C79.802 24.6186 79.7521 24.3223 79.7187 24.0259C79.7022 23.7131 79.6939 23.4167 79.6939 23.1368C79.7105 22.8405 79.7187 22.5852 79.7187 22.3712C79.7356 21.6797 79.7439 20.8976 79.7439 20.025C79.7604 19.1359 79.7687 18.2468 79.7687 17.3577H79.3945C79.1948 17.3577 78.937 17.3577 78.6207 17.3577C78.3212 17.3413 78.0135 17.3166 77.6975 17.2836C77.398 17.2342 77.1151 17.1766 76.849 17.1108C76.5829 17.0284 76.3915 16.9132 76.2749 16.765C76.0921 16.551 75.9754 16.3205 75.9255 16.0735C75.8924 15.8265 75.9089 15.596 75.9754 15.382C76.0587 15.1515 76.1836 14.9539 76.3499 14.7892C76.5162 14.6081 76.7075 14.4929 76.9237 14.4435C77.2232 14.3612 77.6476 14.32 78.1966 14.32C78.7456 14.3035 79.2613 14.3035 79.7439 14.32C79.7273 14.1554 79.7187 13.9989 79.7187 13.8508C79.7187 13.6861 79.7105 13.5297 79.6939 13.3815C79.6774 13.1839 79.6688 12.937 79.6688 12.6406C79.6688 12.3278 79.6857 12.0232 79.7187 11.7268C79.7687 11.414 79.8437 11.1259 79.9435 10.8624C80.0433 10.5825 80.1848 10.3685 80.3676 10.2203C80.6171 10.0227 80.8667 9.91571 81.1163 9.89924C81.3827 9.86631 81.6239 9.89924 81.8401 9.99803C82.0732 10.0968 82.2642 10.245 82.414 10.4426C82.5805 10.6237 82.6969 10.8295 82.7633 11.06C82.8132 11.2576 82.8549 11.4963 82.8883 11.7762C82.9216 12.0396 82.9382 12.3195 82.9382 12.6159C82.9547 12.9123 82.963 13.2086 82.963 13.505C82.963 13.8014 82.963 14.073 82.963 14.32H83.2125C83.4621 14.32 83.7533 14.3118 84.0861 14.2953C84.419 14.2788 84.7433 14.2871 85.0593 14.32C85.3921 14.3529 85.6916 14.4352 85.9577 14.567C86.2241 14.6822 86.4237 14.888 86.5566 15.1844ZM99.3272 15.1844C99.4601 15.4972 99.4683 15.843 99.352 16.2217C99.2522 16.6004 99.0608 16.8473 98.7782 16.9626C98.6284 17.0284 98.4288 17.0861 98.1792 17.1355C97.9297 17.1684 97.655 17.2013 97.3555 17.2342C97.0726 17.2672 96.79 17.2919 96.507 17.3083C96.2241 17.3248 95.9831 17.333 95.7835 17.333C95.8 17.827 95.8165 18.3374 95.8334 18.8642C95.8499 19.3746 95.8664 19.8768 95.8833 20.3708C95.8998 20.8647 95.9081 21.3422 95.9081 21.8032C95.9081 22.2477 95.8998 22.6511 95.8833 23.0133C95.8833 23.2603 95.8833 23.5484 95.8833 23.8777C95.8833 24.1905 95.8582 24.4952 95.8083 24.7915C95.7749 25.0879 95.7167 25.3513 95.6337 25.5818C95.5504 25.7958 95.4255 25.9358 95.2592 26.0017C94.7436 26.2157 94.2693 26.2733 93.8369 26.1745C93.4208 26.0922 93.1213 25.9193 92.9385 25.6559C92.8053 25.4419 92.7055 25.1949 92.639 24.915C92.5723 24.6186 92.5224 24.3223 92.4893 24.0259C92.4725 23.7131 92.4642 23.4167 92.4642 23.1368C92.4807 22.8405 92.4893 22.5852 92.4893 22.3712C92.5059 21.6797 92.5141 20.8976 92.5141 20.025C92.5307 19.1359 92.5392 18.2468 92.5392 17.3577H92.1647C91.9651 17.3577 91.7073 17.3577 91.3913 17.3577C91.0918 17.3413 90.7838 17.3166 90.4678 17.2836C90.1683 17.2342 89.8854 17.1766 89.6193 17.1108C89.3532 17.0284 89.1618 16.9132 89.0454 16.765C88.8623 16.551 88.746 16.3205 88.6961 16.0735C88.6627 15.8265 88.6792 15.596 88.746 15.382C88.8289 15.1515 88.9539 14.9539 89.1201 14.7892C89.2864 14.6081 89.4778 14.4929 89.6943 14.4435C89.9937 14.3612 90.4178 14.32 90.9669 14.32C91.5159 14.3035 92.0315 14.3035 92.5141 14.32C92.4976 14.1554 92.4893 13.9989 92.4893 13.8508C92.4893 13.6861 92.4807 13.5297 92.4642 13.3815C92.4477 13.1839 92.4394 12.937 92.4394 12.6406C92.4394 12.3278 92.4559 12.0232 92.4893 11.7268C92.5392 11.414 92.6139 11.1259 92.7138 10.8624C92.8136 10.5825 92.9551 10.3685 93.1382 10.2203C93.3877 10.0227 93.6373 9.91571 93.8868 9.89924C94.1529 9.86631 94.3942 9.89924 94.6104 9.99803C94.8434 10.0968 95.0348 10.245 95.1845 10.4426C95.3508 10.6237 95.4672 10.8295 95.5339 11.06C95.5838 11.2576 95.6252 11.4963 95.6585 11.7762C95.6919 12.0396 95.7084 12.3195 95.7084 12.6159C95.725 12.9123 95.7336 13.2086 95.7336 13.505C95.7336 13.8014 95.7336 14.073 95.7336 14.32H95.9831C96.2327 14.32 96.5236 14.3118 96.8564 14.2953C97.1893 14.2788 97.5135 14.2871 97.8298 14.32C98.1624 14.3529 98.4618 14.4352 98.7282 14.567C98.9943 14.6822 99.194 14.888 99.3272 15.1844ZM113.096 9.33121C113.245 9.52879 113.337 9.75929 113.37 10.0227C113.37 10.1215 113.362 10.2203 113.345 10.3191C113.345 10.4014 113.337 10.4837 113.32 10.5661C113.304 10.7472 113.195 10.92 112.996 11.0847C112.879 11.167 112.729 11.2493 112.547 11.3317C112.447 11.3646 112.338 11.3893 112.222 11.4058C112.122 11.4058 112.006 11.414 111.873 11.4305C111.773 11.4634 111.665 11.4798 111.548 11.4798C111.432 11.4798 111.315 11.4798 111.199 11.4798H110.076L104.86 11.5045V11.5786L104.835 15.6042C104.968 15.6042 105.11 15.6042 105.26 15.6042C105.426 15.6042 105.626 15.596 105.859 15.5795C106.524 15.5795 107.115 15.5795 107.63 15.5795C108.163 15.5795 108.745 15.5878 109.377 15.6042H109.527C109.71 15.6042 109.893 15.6125 110.076 15.6289C110.276 15.6289 110.475 15.6289 110.675 15.6289C110.858 15.6454 111.041 15.6701 111.224 15.703C111.407 15.7195 111.59 15.7607 111.773 15.8265C112.072 15.9253 112.289 16.0817 112.422 16.2958C112.605 16.5098 112.696 16.7321 112.696 16.9626C112.696 17.0614 112.696 17.1602 112.696 17.2589C112.696 17.3413 112.68 17.4318 112.646 17.5306C112.63 17.6623 112.522 17.827 112.322 18.0245C112.189 18.1398 112.031 18.2139 111.848 18.2468C111.765 18.2798 111.665 18.3127 111.548 18.3456C111.449 18.3621 111.34 18.3785 111.224 18.395C111.107 18.4115 110.991 18.4279 110.874 18.4444C110.775 18.4444 110.658 18.4444 110.525 18.4444H109.377L104.785 18.4691L104.711 24.1988V24.3964C104.711 24.4787 104.702 24.561 104.685 24.6433C104.685 24.7092 104.677 24.7833 104.661 24.8656C104.627 24.9479 104.594 25.0385 104.561 25.1373C104.544 25.2196 104.519 25.3019 104.486 25.3842C104.369 25.6148 104.261 25.7712 104.162 25.8535C103.978 25.9852 103.754 26.0758 103.488 26.1252C103.038 26.2239 102.614 26.1745 102.215 25.977C102.132 25.9276 102.048 25.8699 101.965 25.8041C101.899 25.7218 101.84 25.623 101.791 25.5077C101.757 25.4419 101.741 25.3925 101.741 25.3595L101.666 25.2114C101.616 25.129 101.583 25.0467 101.566 24.9644C101.549 24.8656 101.533 24.7751 101.516 24.6927C101.516 24.6104 101.508 24.5281 101.491 24.4458C101.491 24.3634 101.483 24.2811 101.466 24.1988C101.449 24.0671 101.449 23.9354 101.466 23.8036V23.4085L101.491 21.4821L101.516 17.9258C101.533 17.3989 101.541 16.8638 101.541 16.3205C101.541 15.7771 101.541 15.2173 101.541 14.6411C101.525 14.0483 101.516 13.5215 101.516 13.0605C101.533 12.5995 101.558 12.0973 101.591 11.5539V11.4305C101.607 11.2493 101.616 11.0847 101.616 10.9365C101.616 10.7719 101.633 10.6072 101.666 10.4426C101.699 10.0804 101.782 9.75929 101.916 9.47939C102.032 9.19949 102.198 9.00192 102.415 8.88667C102.664 8.73848 102.93 8.66439 103.213 8.66439C103.346 8.66439 103.454 8.67263 103.537 8.68909V8.66439C103.837 8.66439 104.078 8.66439 104.261 8.66439C104.444 8.66439 104.619 8.66439 104.785 8.66439C104.952 8.66439 105.135 8.66439 105.334 8.66439C105.534 8.64793 105.8 8.6397 106.133 8.6397C107.464 8.62323 108.778 8.62323 110.076 8.6397H110.201C110.384 8.65616 110.567 8.66439 110.75 8.66439C110.949 8.66439 111.149 8.67263 111.349 8.68909C111.532 8.68909 111.715 8.71379 111.898 8.76318C112.081 8.79611 112.264 8.8455 112.447 8.91136C112.729 8.99369 112.946 9.13364 113.096 9.33121ZM118.335 24.1C118.318 24.1823 118.302 24.2646 118.285 24.347C118.285 24.4128 118.285 24.4869 118.285 24.5692L118.135 25.0879C118.102 25.1537 118.077 25.1949 118.06 25.2114L117.985 25.3595C117.902 25.5407 117.753 25.6888 117.536 25.8041C117.137 26.0017 116.713 26.0511 116.264 25.9523C115.981 25.9193 115.756 25.837 115.59 25.7053C115.423 25.5901 115.307 25.4501 115.24 25.2855C115.174 25.1208 115.124 24.9562 115.091 24.7915C115.041 24.6269 115.016 24.4787 115.016 24.347V10.5167C115.016 10.4014 115.016 10.3026 115.016 10.2203C115.032 10.1215 115.049 10.031 115.066 9.94864C115.082 9.83338 115.099 9.73459 115.116 9.65227C115.149 9.56995 115.182 9.47939 115.216 9.38061C115.265 9.21596 115.357 9.08424 115.49 8.98546C115.69 8.83727 115.881 8.75495 116.064 8.73849C116.18 8.70556 116.288 8.68909 116.388 8.68909C116.488 8.67263 116.605 8.66439 116.738 8.66439C116.971 8.66439 117.237 8.73025 117.536 8.86197C117.769 8.99369 117.936 9.1748 118.035 9.4053C118.202 9.73459 118.285 10.0392 118.285 10.3191C118.302 10.4837 118.31 10.7307 118.31 11.06C118.327 11.3893 118.335 11.6363 118.335 11.8009V11.8997C118.368 12.4266 118.385 12.937 118.385 13.4309C118.385 13.9084 118.376 14.4352 118.36 15.0115C118.36 15.5713 118.352 16.1146 118.335 16.6415C118.335 17.1519 118.335 17.6623 118.335 18.1727V23.3591C118.335 23.4249 118.335 23.4908 118.335 23.5567C118.352 23.6061 118.36 23.6637 118.36 23.7295C118.36 23.8942 118.352 24.0177 118.335 24.1ZM123.597 14.9127C124.146 14.6493 124.72 14.4599 125.318 14.3447C125.917 14.2295 126.508 14.2048 127.09 14.2706C127.689 14.3365 128.263 14.4929 128.812 14.7398C129.378 14.9868 129.894 15.3326 130.359 15.7771C130.742 16.1558 131.075 16.6168 131.358 17.1602C131.641 17.687 131.849 18.2057 131.982 18.7161C132.265 19.6216 132.306 20.5354 132.106 21.4574C131.907 22.3795 131.566 23.2356 131.083 24.0259C130.85 24.3881 130.559 24.7174 130.21 25.0138C129.877 25.2937 129.52 25.5242 129.137 25.7053C128.638 25.9358 128.097 26.0922 127.515 26.1745C126.932 26.2733 126.367 26.298 125.818 26.2486C124.819 26.1992 123.938 25.9523 123.172 25.5077C122.424 25.0632 121.816 24.4952 121.351 23.8036C120.901 23.1121 120.602 22.3301 120.452 21.4574C120.319 20.5683 120.377 19.6628 120.627 18.7408C120.893 17.7529 121.276 16.9543 121.775 16.3452C122.291 15.7195 122.898 15.242 123.597 14.9127ZM124.345 18.2221C124.096 18.4526 123.904 18.7408 123.771 19.0865C123.638 19.4323 123.555 19.7945 123.522 20.1732C123.489 20.5354 123.513 20.9058 123.597 21.2845C123.696 21.6468 123.846 21.9761 124.046 22.2724C124.212 22.5194 124.512 22.7252 124.944 22.8898C125.377 23.0545 125.826 23.1533 126.292 23.1862C126.824 23.2192 127.29 23.0792 127.689 22.7664C128.089 22.4371 128.388 22.0337 128.588 21.5562C128.804 21.0787 128.904 20.5601 128.887 20.0003C128.871 19.4405 128.721 18.9301 128.438 18.4691C128.238 18.1398 127.955 17.9011 127.59 17.7529C127.24 17.5882 126.866 17.5059 126.466 17.5059C126.084 17.4895 125.701 17.5471 125.318 17.6788C124.936 17.794 124.611 17.9752 124.345 18.2221ZM148.769 14.9621C148.919 15.1762 148.969 15.5137 148.919 15.9747C148.885 16.4192 148.802 16.9049 148.669 17.4318C148.536 17.9422 148.378 18.4526 148.195 18.963C148.012 19.457 147.862 19.8686 147.746 20.1979C147.463 20.9552 147.214 21.6632 146.997 22.3218C146.781 22.9804 146.523 23.7048 146.224 24.4952C146.124 24.7257 146.024 24.9562 145.924 25.1867C145.841 25.4172 145.733 25.623 145.6 25.8041C145.483 25.9852 145.334 26.1334 145.15 26.2486C144.984 26.3639 144.776 26.4215 144.527 26.4215C144.244 26.4215 143.994 26.3227 143.778 26.1252C143.578 25.9276 143.404 25.6806 143.254 25.3842C143.121 25.0879 143.004 24.7751 142.904 24.4458C142.805 24.1165 142.722 23.8283 142.655 23.5814C142.439 22.8569 142.247 22.1983 142.081 21.6056C141.915 20.9964 141.765 20.4531 141.632 19.9756C141.482 20.4531 141.332 20.9717 141.183 21.5315C141.033 22.0913 140.841 22.7252 140.608 23.4332C140.542 23.6802 140.459 23.9848 140.359 24.347C140.259 24.6927 140.134 25.022 139.985 25.3348C139.852 25.6477 139.677 25.9111 139.461 26.1252C139.261 26.3557 139.02 26.4545 138.737 26.4215C138.338 26.4051 137.988 26.2486 137.689 25.9523C137.406 25.6395 137.156 25.269 136.94 24.8409C136.74 24.4128 136.566 23.9683 136.416 23.5073C136.266 23.0463 136.142 22.6429 136.042 22.2971C135.909 21.8526 135.751 21.3586 135.567 20.8153C135.385 20.272 135.201 19.7204 135.018 19.1606C134.852 18.5843 134.694 18.0163 134.544 17.4565C134.395 16.8802 134.295 16.3534 134.245 15.8759C134.212 15.5631 134.27 15.2749 134.419 15.0115C134.586 14.7481 134.794 14.567 135.044 14.4682C135.31 14.3529 135.593 14.3282 135.892 14.3941C136.208 14.4599 136.491 14.6575 136.74 14.9868C136.874 15.1515 136.99 15.3573 137.09 15.6042C137.206 15.8512 137.306 16.1229 137.389 16.4192C137.473 16.6992 137.556 16.9873 137.639 17.2836C137.722 17.58 137.805 17.8681 137.888 18.148C138.072 18.7737 138.221 19.2676 138.338 19.6298C138.471 19.9756 138.604 20.3378 138.737 20.7165C138.853 20.3378 138.97 19.9756 139.086 19.6298C139.22 19.2676 139.378 18.7737 139.56 18.148C139.627 17.9505 139.702 17.7282 139.785 17.4812C139.885 17.2178 139.985 16.9708 140.085 16.7403C140.201 16.5098 140.326 16.2958 140.459 16.0982C140.608 15.8842 140.767 15.7277 140.933 15.6289C141.299 15.382 141.632 15.3243 141.931 15.4561C142.231 15.5713 142.489 15.7771 142.705 16.0735C142.921 16.3698 143.104 16.7156 143.254 17.1108C143.42 17.4895 143.553 17.8352 143.653 18.148C143.753 18.4773 143.844 18.7655 143.928 19.0124C144.011 19.2429 144.086 19.457 144.152 19.6545C144.219 19.8521 144.277 20.0415 144.327 20.2226C144.393 20.4037 144.46 20.593 144.527 20.7906C144.593 20.593 144.651 20.4037 144.701 20.2226C144.768 20.0415 144.834 19.8521 144.901 19.6545C144.968 19.457 145.042 19.2429 145.126 19.0124C145.209 18.7655 145.3 18.4773 145.4 18.148C145.467 17.934 145.533 17.687 145.6 17.4071C145.683 17.1272 145.766 16.8473 145.849 16.5674C145.932 16.2711 146.016 15.9912 146.099 15.7277C146.199 15.4643 146.307 15.242 146.423 15.0609C146.54 14.8798 146.698 14.7316 146.897 14.6164C147.097 14.4846 147.305 14.4105 147.521 14.3941C147.738 14.3612 147.954 14.3858 148.17 14.4682C148.403 14.5505 148.603 14.7152 148.769 14.9621Z" fill="#22C55E"/>
</g>
<defs>
<clipPath id="clip0_6092_104">
<rect width="114" height="18" fill="white" transform="translate(35 8.5)"/>
</clipPath>
</defs>
</svg>
