<svg width="24" height="25" viewBox="0 0 24 25" fill="none" xmlns="http://www.w3.org/2000/svg">
<path d="M13 3.72351V4.23714C13 6.48698 13 7.6119 13.573 8.4005C13.758 8.65518 13.982 8.87915 14.2366 9.06419C15.0252 9.63714 16.1502 9.63714 18.4 9.63714L19 9.63714M19 10.9113V16.0644C19 18.3142 19 19.4392 18.4271 20.2278C18.242 20.4824 18.018 20.7064 17.7634 20.8915C16.9748 21.4644 15.8498 21.4644 13.6 21.4644H10.4C8.15016 21.4644 7.02524 21.4644 6.23664 20.8915C5.98196 20.7064 5.75799 20.4824 5.57295 20.2278C5 19.4392 5 18.3142 5 16.0644L5 9.12351C5 6.87367 5 5.74875 5.57295 4.96016C5.75799 4.70547 5.98196 4.4815 6.23664 4.29646C7.02524 3.72351 8.15016 3.72351 10.4 3.72351L11.7861 3.72351C12.7559 3.72351 13.2408 3.72351 13.6889 3.86766C13.8371 3.91535 13.9814 3.97451 14.1204 4.04459C14.5407 4.25646 14.8861 4.59682 15.5767 5.27755L17.3906 7.0653C18.0952 7.75974 18.4475 8.10696 18.6671 8.53335C18.7397 8.67436 18.801 8.82091 18.8505 8.97162C19 9.42732 19 9.92197 19 10.9113Z" stroke="#1E293B" stroke-width="1.5" stroke-linejoin="round"/>
</svg>
