<svg width="937" height="616" viewBox="0 0 937 616" fill="none" xmlns="http://www.w3.org/2000/svg">
<rect width="937" height="616" rx="10" fill="#FBFBFB"/>
<rect x="0.25" y="0.25" width="936.5" height="615.5" rx="9.75" stroke="black" stroke-opacity="0.2" stroke-width="0.5"/>
<circle cx="335.5" cy="301.5" r="15.5" fill="#2F4858"/>
<circle cx="335.5" cy="297.625" r="7.75" fill="black"/>
<path d="M346.737 312.35C344.412 314.287 341.923 317 335.502 317C328.912 317 324.65 312.737 324.265 312.159C324.265 307.023 329.082 306.734 335.502 306.734C341.923 306.734 346.737 307.214 346.737 312.35Z" fill="black"/>
<ellipse cx="335.5" cy="359.5" rx="15.5" ry="15.5" fill="#22C55E"/>
<ellipse cx="335.5" cy="355.625" rx="7.75" ry="7.74998" fill="black"/>
<path d="M346.737 370.35C344.412 372.288 341.923 375 335.502 375C328.912 375 324.65 370.738 324.265 370.159C324.265 365.023 329.082 364.734 335.502 364.734C341.923 364.734 346.737 365.214 346.737 370.35Z" fill="black"/>
<ellipse cx="334.5" cy="526.5" rx="15.5" ry="15.5" fill="#22C55E"/>
<ellipse cx="334.5" cy="522.625" rx="7.75" ry="7.74998" fill="black"/>
<path d="M345.737 537.35C343.412 539.288 340.923 542 334.502 542C327.912 542 323.65 537.738 323.265 537.159C323.265 532.023 328.082 531.734 334.502 531.734C340.923 531.734 345.737 532.214 345.737 537.35Z" fill="black"/>
<ellipse cx="334.5" cy="192.5" rx="15.5" ry="15.5" fill="#E09F7D"/>
<ellipse cx="334.5" cy="188.625" rx="7.75" ry="7.74999" fill="black"/>
<path d="M345.737 203.35C343.412 205.288 340.923 208 334.502 208C327.912 208 323.65 203.738 323.265 203.159C323.265 198.023 328.082 197.734 334.502 197.734C340.923 197.734 345.737 198.214 345.737 203.35Z" fill="black"/>
<ellipse cx="335.5" cy="468.5" rx="15.5" ry="15.5" fill="#E09F7D"/>
<ellipse cx="335.5" cy="464.625" rx="7.75" ry="7.74999" fill="black"/>
<path d="M346.737 479.35C344.412 481.288 341.923 484 335.502 484C328.912 484 324.65 479.738 324.265 479.159C324.265 474.023 329.082 473.734 335.502 473.734C341.923 473.734 346.737 474.214 346.737 479.35Z" fill="black"/>
<ellipse cx="334.501" cy="134.5" rx="15.5012" ry="15.5" fill="#336699"/>
<ellipse cx="334.501" cy="130.625" rx="7.75058" ry="7.75" fill="black"/>
<path d="M345.74 145.35C343.414 147.288 340.924 150 334.503 150C327.913 150 323.65 145.738 323.265 145.159C323.265 140.023 328.083 139.734 334.503 139.734C340.924 139.734 345.74 140.214 345.74 145.35Z" fill="black"/>
<g clip-path="url(#clip0_6338_188)">
<path d="M63 127H49C47.6744 127.002 46.4036 127.529 45.4662 128.466C44.5289 129.404 44.0016 130.674 44 132V146C44.0016 147.326 44.5289 148.596 45.4662 149.534C46.4036 150.471 47.6744 150.998 49 151H63C64.3256 150.998 65.5964 150.471 66.5338 149.534C67.4711 148.596 67.9984 147.326 68 146V132C67.9984 130.674 67.4711 129.404 66.5338 128.466C65.5964 127.529 64.3256 127.002 63 127V127ZM66 146C66 146.796 65.6839 147.559 65.1213 148.121C64.5587 148.684 63.7956 149 63 149H49C48.2044 149 47.4413 148.684 46.8787 148.121C46.3161 147.559 46 146.796 46 146V132C46 131.204 46.3161 130.441 46.8787 129.879C47.4413 129.316 48.2044 129 49 129H63C63.7956 129 64.5587 129.316 65.1213 129.879C65.6839 130.441 66 131.204 66 132V146Z" fill="#374957"/>
<path d="M53.3328 142.919L49.4138 139C49.2263 138.813 48.972 138.707 48.7068 138.707C48.4417 138.707 48.1873 138.813 47.9998 139C47.8123 139.188 47.707 139.442 47.707 139.707C47.707 139.972 47.8123 140.227 47.9998 140.414L51.9188 144.333C52.1045 144.519 52.3251 144.666 52.5678 144.767C52.8105 144.867 53.0706 144.919 53.3333 144.919C53.596 144.919 53.8562 144.867 54.0989 144.767C54.3416 144.666 54.5621 144.519 54.7478 144.333L63.9998 135.081C64.1873 134.894 64.2926 134.639 64.2926 134.374C64.2926 134.109 64.1873 133.855 63.9998 133.667V133.667C63.8123 133.48 63.558 133.374 63.2928 133.374C63.0277 133.374 62.7733 133.48 62.5858 133.667L53.3328 142.919Z" fill="#374957"/>
</g>
<g clip-path="url(#clip1_6338_188)">
<path d="M63 181H49C47.6744 181.002 46.4036 181.529 45.4662 182.466C44.5289 183.404 44.0016 184.674 44 186V200C44.0016 201.326 44.5289 202.596 45.4662 203.534C46.4036 204.471 47.6744 204.998 49 205H63C64.3256 204.998 65.5964 204.471 66.5338 203.534C67.4711 202.596 67.9984 201.326 68 200V186C67.9984 184.674 67.4711 183.404 66.5338 182.466C65.5964 181.529 64.3256 181.002 63 181V181ZM66 200C66 200.796 65.6839 201.559 65.1213 202.121C64.5587 202.684 63.7956 203 63 203H49C48.2044 203 47.4413 202.684 46.8787 202.121C46.3161 201.559 46 200.796 46 200V186C46 185.204 46.3161 184.441 46.8787 183.879C47.4413 183.316 48.2044 183 49 183H63C63.7956 183 64.5587 183.316 65.1213 183.879C65.6839 184.441 66 185.204 66 186V200Z" fill="#374957"/>
<path d="M53.3328 196.919L49.4138 193C49.2263 192.813 48.972 192.707 48.7068 192.707C48.4417 192.707 48.1873 192.813 47.9998 193C47.8123 193.188 47.707 193.442 47.707 193.707C47.707 193.972 47.8123 194.227 47.9998 194.414L51.9188 198.333C52.1045 198.519 52.3251 198.666 52.5678 198.767C52.8105 198.867 53.0706 198.919 53.3333 198.919C53.596 198.919 53.8562 198.867 54.0989 198.767C54.3416 198.666 54.5621 198.519 54.7478 198.333L63.9998 189.081C64.1873 188.894 64.2926 188.639 64.2926 188.374C64.2926 188.109 64.1873 187.855 63.9998 187.667V187.667C63.8123 187.48 63.558 187.374 63.2928 187.374C63.0277 187.374 62.7733 187.48 62.5858 187.667L53.3328 196.919Z" fill="#374957"/>
</g>
<g clip-path="url(#clip2_6338_188)">
<path d="M63 293H49C47.6744 293.002 46.4036 293.529 45.4662 294.466C44.5289 295.404 44.0016 296.674 44 298V312C44.0016 313.326 44.5289 314.596 45.4662 315.534C46.4036 316.471 47.6744 316.998 49 317H63C64.3256 316.998 65.5964 316.471 66.5338 315.534C67.4711 314.596 67.9984 313.326 68 312V298C67.9984 296.674 67.4711 295.404 66.5338 294.466C65.5964 293.529 64.3256 293.002 63 293V293ZM66 312C66 312.796 65.6839 313.559 65.1213 314.121C64.5587 314.684 63.7956 315 63 315H49C48.2044 315 47.4413 314.684 46.8787 314.121C46.3161 313.559 46 312.796 46 312V298C46 297.204 46.3161 296.441 46.8787 295.879C47.4413 295.316 48.2044 295 49 295H63C63.7956 295 64.5587 295.316 65.1213 295.879C65.6839 296.441 66 297.204 66 298V312Z" fill="#374957"/>
<path d="M53.3328 308.919L49.4138 305C49.2263 304.813 48.972 304.707 48.7068 304.707C48.4417 304.707 48.1873 304.813 47.9998 305C47.8123 305.188 47.707 305.442 47.707 305.707C47.707 305.972 47.8123 306.227 47.9998 306.414L51.9188 310.333C52.1045 310.519 52.3251 310.666 52.5678 310.767C52.8105 310.867 53.0706 310.919 53.3333 310.919C53.596 310.919 53.8562 310.867 54.0989 310.767C54.3416 310.666 54.5621 310.519 54.7478 310.333L63.9998 301.081C64.1873 300.894 64.2926 300.639 64.2926 300.374C64.2926 300.109 64.1873 299.855 63.9998 299.667V299.667C63.8123 299.48 63.558 299.374 63.2928 299.374C63.0277 299.374 62.7733 299.48 62.5858 299.667L53.3328 308.919Z" fill="#374957"/>
</g>
<g clip-path="url(#clip3_6338_188)">
<path d="M63 347H49C47.6744 347.002 46.4036 347.529 45.4662 348.466C44.5289 349.404 44.0016 350.674 44 352V366C44.0016 367.326 44.5289 368.596 45.4662 369.534C46.4036 370.471 47.6744 370.998 49 371H63C64.3256 370.998 65.5964 370.471 66.5338 369.534C67.4711 368.596 67.9984 367.326 68 366V352C67.9984 350.674 67.4711 349.404 66.5338 348.466C65.5964 347.529 64.3256 347.002 63 347V347ZM66 366C66 366.796 65.6839 367.559 65.1213 368.121C64.5587 368.684 63.7956 369 63 369H49C48.2044 369 47.4413 368.684 46.8787 368.121C46.3161 367.559 46 366.796 46 366V352C46 351.204 46.3161 350.441 46.8787 349.879C47.4413 349.316 48.2044 349 49 349H63C63.7956 349 64.5587 349.316 65.1213 349.879C65.6839 350.441 66 351.204 66 352V366Z" fill="#374957"/>
<path d="M53.3328 362.919L49.4138 359C49.2263 358.813 48.972 358.707 48.7068 358.707C48.4417 358.707 48.1873 358.813 47.9998 359C47.8123 359.188 47.707 359.442 47.707 359.707C47.707 359.972 47.8123 360.227 47.9998 360.414L51.9188 364.333C52.1045 364.519 52.3251 364.666 52.5678 364.767C52.8105 364.867 53.0706 364.919 53.3333 364.919C53.596 364.919 53.8562 364.867 54.0989 364.767C54.3416 364.666 54.5621 364.519 54.7478 364.333L63.9998 355.081C64.1873 354.894 64.2926 354.639 64.2926 354.374C64.2926 354.109 64.1873 353.855 63.9998 353.667V353.667C63.8123 353.48 63.558 353.374 63.2928 353.374C63.0277 353.374 62.7733 353.48 62.5858 353.667L53.3328 362.919Z" fill="#374957"/>
</g>
<path d="M48.6636 46.652C51.1463 46.652 53.0689 47.1653 54.4316 48.192C55.8129 49.2187 56.5036 50.7587 56.5036 52.812C56.5036 54.9587 55.8129 56.5733 54.4316 57.656C53.0503 58.72 51.2116 59.252 48.9156 59.252H46.6476V66H42.9516V46.652H48.6636ZM48.6356 56.48C49.9609 56.48 50.9596 56.2093 51.6316 55.668C52.3036 55.108 52.6396 54.156 52.6396 52.812C52.6396 50.516 51.3049 49.368 48.6356 49.368H46.6476V56.48H48.6356ZM66.1437 50.796C66.685 50.796 67.1797 50.8613 67.6277 50.992L67.0117 54.464C66.5637 54.352 66.125 54.296 65.6957 54.296C64.8184 54.296 64.1277 54.6133 63.6237 55.248C63.1197 55.864 62.7184 56.816 62.4197 58.104V66H58.8357V51.188H61.9437L62.2797 54.1C62.6344 53.036 63.1477 52.224 63.8197 51.664C64.4917 51.0853 65.2664 50.796 66.1437 50.796ZM75.0556 50.768C77.2396 50.768 78.9382 51.468 80.1516 52.868C81.3836 54.2493 81.9996 56.1533 81.9996 58.58C81.9996 60.1293 81.7196 61.5013 81.1596 62.696C80.5996 63.872 79.7969 64.7867 78.7516 65.44C77.7062 66.0933 76.4649 66.42 75.0276 66.42C72.8436 66.42 71.1356 65.7293 69.9036 64.348C68.6716 62.948 68.0556 61.0253 68.0556 58.58C68.0556 57.0307 68.3356 55.668 68.8956 54.492C69.4556 53.316 70.2582 52.4013 71.3036 51.748C72.3676 51.0947 73.6182 50.768 75.0556 50.768ZM75.0556 53.484C72.9089 53.484 71.8356 55.1827 71.8356 58.58C71.8356 60.3347 72.0969 61.632 72.6196 62.472C73.1609 63.2933 73.9636 63.704 75.0276 63.704C76.0916 63.704 76.8849 63.284 77.4076 62.444C77.9489 61.604 78.2196 60.316 78.2196 58.58C78.2196 56.844 77.9489 55.5653 77.4076 54.744C76.8849 53.904 76.1009 53.484 75.0556 53.484ZM88.9151 64.684C88.9151 66.14 88.7005 67.3253 88.2711 68.24C87.8605 69.1733 87.2725 69.92 86.5071 70.48C85.7418 71.04 84.7431 71.572 83.5111 72.076L82.3631 69.472C83.0911 69.136 83.6605 68.8 84.0711 68.464C84.4818 68.1467 84.7898 67.708 84.9951 67.148C85.2191 66.588 85.3311 65.8413 85.3311 64.908V51.188H88.9151V64.684ZM87.0951 43.684C87.7671 43.684 88.3085 43.8987 88.7191 44.328C89.1485 44.7387 89.3631 45.252 89.3631 45.868C89.3631 46.484 89.1485 46.9973 88.7191 47.408C88.3085 47.8187 87.7671 48.024 87.0951 48.024C86.4418 48.024 85.9005 47.8187 85.4711 47.408C85.0605 46.9973 84.8551 46.484 84.8551 45.868C84.8551 45.252 85.0605 44.7387 85.4711 44.328C85.9005 43.8987 86.4418 43.684 87.0951 43.684ZM105.386 58.244C105.386 58.4307 105.358 58.916 105.302 59.7H96.0061C96.1181 61.1373 96.4915 62.164 97.1261 62.78C97.7608 63.396 98.6008 63.704 99.6461 63.704C100.299 63.704 100.915 63.6013 101.494 63.396C102.073 63.172 102.689 62.836 103.342 62.388L104.826 64.432C103.183 65.7573 101.354 66.42 99.3381 66.42C97.0795 66.42 95.3341 65.7293 94.1021 64.348C92.8888 62.9667 92.2821 61.0813 92.2821 58.692C92.2821 57.18 92.5435 55.8267 93.0661 54.632C93.5888 53.4187 94.3448 52.476 95.3341 51.804C96.3235 51.1133 97.4995 50.768 98.8621 50.768C100.934 50.768 102.539 51.4307 103.678 52.756C104.817 54.0627 105.386 55.892 105.386 58.244ZM101.83 57.208C101.83 54.6133 100.869 53.316 98.9461 53.316C98.0688 53.316 97.3781 53.6427 96.8741 54.296C96.3888 54.9307 96.0995 55.9573 96.0061 57.376H101.83V57.208ZM114.565 50.768C115.536 50.768 116.404 50.908 117.169 51.188C117.953 51.468 118.691 51.9067 119.381 52.504L117.785 54.66C117.281 54.2867 116.796 54.016 116.329 53.848C115.863 53.68 115.349 53.596 114.789 53.596C112.568 53.596 111.457 55.2853 111.457 58.664C111.457 60.3813 111.747 61.6227 112.325 62.388C112.904 63.1347 113.725 63.508 114.789 63.508C115.312 63.508 115.788 63.424 116.217 63.256C116.665 63.088 117.188 62.8173 117.785 62.444L119.381 64.712C117.981 65.8507 116.385 66.42 114.593 66.42C113.175 66.42 111.943 66.112 110.897 65.496C109.852 64.8613 109.049 63.9653 108.489 62.808C107.929 61.6507 107.649 60.288 107.649 58.72C107.649 57.152 107.929 55.7707 108.489 54.576C109.049 53.3627 109.852 52.4293 110.897 51.776C111.943 51.104 113.165 50.768 114.565 50.768ZM130.456 65.3C129.934 65.6733 129.346 65.9533 128.692 66.14C128.058 66.3267 127.404 66.42 126.732 66.42C125.276 66.4013 124.166 65.9907 123.4 65.188C122.654 64.3667 122.28 63.1627 122.28 61.576V53.764H119.956V51.188H122.28V47.912L125.864 47.492V51.188H129.308L128.944 53.764H125.864V61.492C125.864 62.22 125.986 62.7427 126.228 63.06C126.49 63.3773 126.891 63.536 127.432 63.536C127.974 63.536 128.562 63.3587 129.196 63.004L130.456 65.3Z" fill="black"/>
<rect x="91" y="127" width="118" height="23" rx="10" fill="#E3DDDD"/>
<rect x="44" y="94" width="119" height="12" rx="6" fill="#E3DDDD"/>
<rect x="38" y="252" width="119" height="12" rx="6" fill="#E3DDDD"/>
<rect x="44" y="414" width="119" height="12" rx="6" fill="#E3DDDD"/>
<rect x="420" y="128" width="165" height="23" rx="3" fill="#E5ACAC"/>
<rect x="585" y="187" width="143" height="23" rx="3" fill="#E5ACAC"/>
<rect x="468" y="299" width="143" height="23" rx="3" fill="#E5ACAC"/>
<rect x="663" y="349" width="143" height="23" rx="3" fill="#E5ACAC"/>
<rect x="690" y="518" width="143" height="23" rx="3" fill="#E5ACAC"/>
<rect x="468" y="459" width="143" height="23" rx="3" fill="#E5ACAC"/>
<rect x="91" y="181" width="188" height="23" rx="10" fill="#E3DDDD"/>
<rect x="91" y="295" width="145" height="23" rx="10" fill="#E3DDDD"/>
<g clip-path="url(#clip4_6338_188)">
<path d="M63 457H49C47.6744 457.002 46.4036 457.529 45.4662 458.466C44.5289 459.404 44.0016 460.674 44 462V476C44.0016 477.326 44.5289 478.596 45.4662 479.534C46.4036 480.471 47.6744 480.998 49 481H63C64.3256 480.998 65.5964 480.471 66.5338 479.534C67.4711 478.596 67.9984 477.326 68 476V462C67.9984 460.674 67.4711 459.404 66.5338 458.466C65.5964 457.529 64.3256 457.002 63 457V457ZM66 476C66 476.796 65.6839 477.559 65.1213 478.121C64.5587 478.684 63.7956 479 63 479H49C48.2044 479 47.4413 478.684 46.8787 478.121C46.3161 477.559 46 476.796 46 476V462C46 461.204 46.3161 460.441 46.8787 459.879C47.4413 459.316 48.2044 459 49 459H63C63.7956 459 64.5587 459.316 65.1213 459.879C65.6839 460.441 66 461.204 66 462V476Z" fill="#374957"/>
<path d="M53.3328 472.919L49.4138 469C49.2263 468.813 48.972 468.707 48.7068 468.707C48.4417 468.707 48.1873 468.813 47.9998 469C47.8123 469.188 47.707 469.442 47.707 469.707C47.707 469.972 47.8123 470.227 47.9998 470.414L51.9188 474.333C52.1045 474.519 52.3251 474.666 52.5678 474.767C52.8105 474.867 53.0706 474.919 53.3333 474.919C53.596 474.919 53.8562 474.867 54.0989 474.767C54.3416 474.666 54.5621 474.519 54.7478 474.333L63.9998 465.081C64.1873 464.894 64.2926 464.639 64.2926 464.374C64.2926 464.109 64.1873 463.855 63.9998 463.667V463.667C63.8123 463.48 63.558 463.374 63.2928 463.374C63.0277 463.374 62.7733 463.48 62.5858 463.667L53.3328 472.919Z" fill="#374957"/>
</g>
<rect x="91" y="459" width="155" height="23" rx="10" fill="#E3DDDD"/>
<g clip-path="url(#clip5_6338_188)">
<path d="M63 512H49C47.6744 512.002 46.4036 512.529 45.4662 513.466C44.5289 514.404 44.0016 515.674 44 517V531C44.0016 532.326 44.5289 533.596 45.4662 534.534C46.4036 535.471 47.6744 535.998 49 536H63C64.3256 535.998 65.5964 535.471 66.5338 534.534C67.4711 533.596 67.9984 532.326 68 531V517C67.9984 515.674 67.4711 514.404 66.5338 513.466C65.5964 512.529 64.3256 512.002 63 512V512ZM66 531C66 531.796 65.6839 532.559 65.1213 533.121C64.5587 533.684 63.7956 534 63 534H49C48.2044 534 47.4413 533.684 46.8787 533.121C46.3161 532.559 46 531.796 46 531V517C46 516.204 46.3161 515.441 46.8787 514.879C47.4413 514.316 48.2044 514 49 514H63C63.7956 514 64.5587 514.316 65.1213 514.879C65.6839 515.441 66 516.204 66 517V531Z" fill="#374957"/>
<path d="M53.3328 527.919L49.4138 524C49.2263 523.813 48.972 523.707 48.7068 523.707C48.4417 523.707 48.1873 523.813 47.9998 524C47.8123 524.188 47.707 524.442 47.707 524.707C47.707 524.972 47.8123 525.227 47.9998 525.414L51.9188 529.333C52.1045 529.519 52.3251 529.666 52.5678 529.767C52.8105 529.867 53.0706 529.919 53.3333 529.919C53.596 529.919 53.8562 529.867 54.0989 529.767C54.3416 529.666 54.5621 529.519 54.7478 529.333L63.9998 520.081C64.1873 519.894 64.2926 519.639 64.2926 519.374C64.2926 519.109 64.1873 518.855 63.9998 518.667V518.667C63.8123 518.48 63.558 518.374 63.2928 518.374C63.0277 518.374 62.7733 518.48 62.5858 518.667L53.3328 527.919Z" fill="#374957"/>
</g>
<rect x="91" y="514" width="178" height="23" rx="10" fill="#E3DDDD"/>
<rect x="91" y="349" width="108" height="23" rx="10" fill="#E3DDDD"/>
<line x1="297.5" y1="100" x2="297.5" y2="543" stroke="black"/>
<line x1="372.5" y1="100" x2="372.5" y2="543" stroke="black"/>
<line x1="610.988" y1="311.75" x2="643.002" y2="311.75" stroke="black"/>
<line x1="642.5" y1="312" x2="642.5" y2="362" stroke="black"/>
<path d="M663.354 361.854C663.549 361.658 663.549 361.342 663.354 361.146L660.172 357.964C659.976 357.769 659.66 357.769 659.464 357.964C659.269 358.16 659.269 358.476 659.464 358.672L662.293 361.5L659.464 364.328C659.269 364.524 659.269 364.84 659.464 365.036C659.66 365.231 659.976 365.231 660.172 365.036L663.354 361.854ZM643 361.5V362H663V361.5V361H643V361.5Z" fill="black"/>
<line x1="585" y1="139.5" x2="633" y2="139.5" stroke="black"/>
<path d="M632.646 187.354C632.842 187.549 633.158 187.549 633.354 187.354L636.536 184.172C636.731 183.976 636.731 183.66 636.536 183.464C636.34 183.269 636.024 183.269 635.828 183.464L633 186.293L630.172 183.464C629.976 183.269 629.66 183.269 629.464 183.464C629.269 183.66 629.269 183.976 629.464 184.172L632.646 187.354ZM633 139H632.5V187H633H633.5V139H633Z" fill="black"/>
<line x1="611.994" y1="470" x2="653.006" y2="470" stroke="black"/>
<line x1="652.5" y1="470" x2="652.5" y2="530" stroke="black"/>
<path d="M689.854 529.854C690.049 529.658 690.049 529.342 689.854 529.146L686.672 525.964C686.476 525.769 686.16 525.769 685.964 525.964C685.769 526.16 685.769 526.476 685.964 526.672L688.793 529.5L685.964 532.328C685.769 532.524 685.769 532.84 685.964 533.036C686.16 533.231 686.476 533.231 686.672 533.036L689.854 529.854ZM653 529.5V530H689.5V529.5V529H653V529.5Z" fill="black"/>
<defs>
<clipPath id="clip0_6338_188">
<rect width="24" height="24" fill="white" transform="translate(44 127)"/>
</clipPath>
<clipPath id="clip1_6338_188">
<rect width="24" height="24" fill="white" transform="translate(44 181)"/>
</clipPath>
<clipPath id="clip2_6338_188">
<rect width="24" height="24" fill="white" transform="translate(44 293)"/>
</clipPath>
<clipPath id="clip3_6338_188">
<rect width="24" height="24" fill="white" transform="translate(44 347)"/>
</clipPath>
<clipPath id="clip4_6338_188">
<rect width="24" height="24" fill="white" transform="translate(44 457)"/>
</clipPath>
<clipPath id="clip5_6338_188">
<rect width="24" height="24" fill="white" transform="translate(44 512)"/>
</clipPath>
</defs>
</svg>
