<svg width="20" height="20" viewBox="0 0 20 20" fill="none" xmlns="http://www.w3.org/2000/svg">
<path d="M3.4 8.03388V8.03388C2.26786 8.54108 1.70179 8.79468 1.4691 9.10474C1.06876 9.63822 1.06876 10.372 1.4691 10.9054C1.70179 11.2155 2.26786 11.4691 3.4 11.9763V11.9763M3.4 8.03388V8.03388C2.26786 7.52668 1.70179 7.27308 1.4691 6.96301C1.06876 6.42954 1.06876 5.6958 1.4691 5.16232C1.70179 4.85226 2.26786 4.59866 3.4 4.09146L8.89611 1.62919C9.37841 1.41312 9.61956 1.30508 9.87379 1.28361C9.95778 1.27652 10.0422 1.27652 10.1262 1.28361C10.3804 1.30508 10.6216 1.41312 11.1039 1.62919L16.6 4.09146C17.7321 4.59866 18.2982 4.85226 18.5309 5.16232C18.9312 5.6958 18.9312 6.42954 18.5309 6.96301C18.2982 7.27308 17.7321 7.52668 16.6 8.03388V8.03388M3.4 8.03388L8.89611 10.4961C9.37841 10.7122 9.61956 10.8203 9.87379 10.8417C9.95778 10.8488 10.0422 10.8488 10.1262 10.8417C10.3804 10.8203 10.6216 10.7122 11.1039 10.4961L16.6 8.03388M3.4 11.9763V11.9763C2.26786 12.4835 1.70179 12.7371 1.4691 13.0472C1.06876 13.5806 1.06876 14.3144 1.4691 14.8479C1.70179 15.1579 2.26786 15.4115 3.4 15.9187L8.89611 18.381C9.37841 18.5971 9.61956 18.7051 9.87379 18.7266C9.95778 18.7337 10.0422 18.7337 10.1262 18.7266C10.3804 18.7051 10.6216 18.5971 11.1039 18.381L16.6 15.9187C17.7321 15.4115 18.2982 15.1579 18.5309 14.8479C18.9312 14.3144 18.9312 13.5806 18.5309 13.0472C18.2982 12.7371 17.7321 12.4835 16.6 11.9763V11.9763M3.4 11.9763L8.89611 14.4386C9.37841 14.6546 9.61956 14.7627 9.87379 14.7841C9.95778 14.7912 10.0422 14.7912 10.1262 14.7841C10.3804 14.7627 10.6216 14.6546 11.1039 14.4386L16.6 11.9763M16.6 11.9763V11.9763C17.7321 11.4691 18.2982 11.2155 18.5309 10.9054C18.9312 10.372 18.9312 9.63822 18.5309 9.10474C18.2982 8.79468 17.7321 8.54108 16.6 8.03388V8.03388" stroke="#1E293B" stroke-width="1.5" stroke-linejoin="round"/>
</svg>
